<?xml version="1.0" encoding="utf-8"?>
<!-- Generator: Adobe Illustrator 19.0.0, SVG Export Plug-In . SVG Version: 6.00 Build 0)  -->
<svg version="1.1" id="Layer_1" xmlns="http://www.w3.org/2000/svg" xmlns:xlink="http://www.w3.org/1999/xlink" x="0px" y="0px"
	 viewBox="0 0 308.7 132.9" style="enable-background:new 0 0 308.7 132.9;" xml:space="preserve">
<style type="text/css">
	.st0{fill:#FFF806;}
	.st1{fill:#C9003A;}
</style>
<rect id="XMLID_1_" x="14.3" y="22.4" transform="matrix(0.9983 5.832185e-02 -5.832185e-02 0.9983 4.2548 -9.1391)" class="st0" width="288.8" height="91.9"/>
<g id="XMLID_3_">
	<path id="XMLID_92_" class="st1" d="M39.8,72.9l-0.2-0.2l-0.3-0.1L39,72.6l-0.9,0.3l-0.4,0.3l-0.2,0.4l0.1,1l-0.3,0.5l-0.2,0.2
		l-0.9,0.4l-0.2,0L35,76l-1,0.2l-1,0.2l-0.5,0.1l-0.9,0.1l-0.4,0.2l-0.5,0.1v0.1l-0.7,0.1L29.8,77l-0.9,0.2l-0.6,0.3l-0.9,0.5
		l-0.2,0L27,78.3l-0.7,0.8l-0.6,0.8h-0.1l0,0.2l-0.1,0.2L25.2,81l-0.1,1l0.1,0.5l0,0l0.4,0.2l0.5,0l0.5-0.1v-0.1h0.2l0.3-0.3
		l0.2-0.8l0.2-0.1l0.1-0.4l0.2-0.2l0-0.2l0.2-0.1l0.2-0.2l0.8-0.7l0.4-0.2l0.9-0.3l1-0.2l0.5,0.1l0.2,0.3l0.1,0.5l-0.2,1l-0.2,0.9
		l-0.2,0.2l0,0.2l-0.1,0l-0.1,0.5L31,82.8l-0.1,0.3l-0.4,0.4l-0.6,0.8l-0.4,0.3l-0.2,0.2h-0.1l-0.7,0.5l-0.4,0.2L28,85.6l-0.5,0.2
		l-0.8,0.3l-1,0.1h-1l-0.5-0.2l-1-0.2L23,85.6l-0.2,0l-0.1-0.1l-0.5-0.4l-0.7-0.7l-0.6-0.9l-0.3-1l-0.3-1l-0.1-0.5l0.1-1l0.2-1.1
		l0.3-0.7l0.3-0.4l0-0.2l0.1-0.1v-0.1l0.2-0.2l0.2-0.3l0.6-0.7l0.3,0l0.1-0.1L23,76l0.9-0.5l0.4-0.1l0.1,0.1l0.5-0.1l1,0.2l0.4,0.2
		l0.4,0.1l0.2,0.2l0.3,0.1l0.4-0.1l0.7-0.7l0.3-0.5v-0.3L28.4,74l-0.2-0.1l0-0.2l-0.3-0.2l-0.1-0.3l-0.2-0.3l-0.2-0.4l-0.1-0.3
		l-0.1-1l0.1-1l0.1-0.4l0.1-0.6l0.1-0.2v-0.1l0.3-0.4l0.3-0.3l0.1-0.2l0.7-0.7l0.4-0.3l0.4-0.2l0.5,0l1-0.2h0.4l1,0.3l0.4,0.3l0.2,0
		l0.1,0.1l0.2,0l0.1,0.1l0.6,0.8l0,0.2l0.1,0.2l0.1,0.5l0.1,0.6l0,0.5l-0.1,0.2l0,0.3l-0.2,0.2L34.4,71l-0.3,0.3l-0.3,0.1h-0.3
		l-0.2-0.2l-0.2-0.4L33,70.3l-0.3-0.4l-0.4-0.3v-0.1h-0.1v-0.1l-0.4-0.1h-0.5l-0.8,0.5l-0.1,0.2l-0.2,0.2L30,70.6l0,0.2v1h0.1
		l0.1,0.4l0.2,0.1l0,0.2l0.7,0.8l0.2,0.1l0.3,0.2l0.4,0.2l0.5,0.1l0.5,0l1-0.3l0.8-0.3l0.2-0.2l0.2-0.1l0.7-0.8l0.1-0.2l0.1-0.1
		l0-0.2l0.2-0.3l0.1-0.4h0.1V71h0.1v-0.1l0.3-0.9l0.1-0.5l-0.2-1l-0.2-0.9l-0.3-0.8l-0.2-0.2L36,66.2l-0.3-0.3l-0.3-0.4l-0.2-0.1
		l-0.1-0.1H35L34.7,65l-0.9-0.5L33,64.3L32,64l-0.5,0l-0.5,0.1l-1,0l-1,0.4l-0.5,0.1l-0.2,0.2l-0.3,0.1L28,65h-0.1l-0.2,0.1
		l-0.5,0.4l-0.7,0.7l-0.4,0.3l-0.1,0.2L26,66.8v0.1L25.8,67v0.2l-0.1,0.1l-0.3,0.4l-0.4,1l-0.2,1l-0.1,1v1l0.1,1.1l-0.3,0.4l-0.1,0
		l-1,0.1l-0.1,0.1l-0.5,0.1l-0.4,0.2l-0.4,0.1v0.1h-0.1v0.1h-0.2v0.1L21.1,74H21v0.1l-0.2,0l-0.3,0.4l-0.2,0.1l0,0.1l-0.6,0.4
		L19,75.9l-0.3,0.3l-0.1,0.4l-0.2,0.2l-0.1,0.4L18,77.6l-0.3,0.9l-0.3,0.9l0,1.1l-0.1,0.1l0,0.3l0.1,1l0.4,0.9l0.1,1l0.4,0.9
		l0.3,0.5v0.1l0.6,0.7V86l0.3,0.3l0,0.2l0.5,0.4v0.1l0.7,0.6h0.1l0.3,0.2l0.5,0.2l0.4,0.3l0.5,0.2l1,0.3l1,0.1l0.5,0.1h0.6l1-0.1
		l0.9-0.1l0.2-0.1l0.4-0.1v-0.1h0.1v-0.1l0.1,0l0.8-0.3h0.1v-0.1h0.2v-0.1h0.1v-0.1l0.3-0.2l0.4-0.4l0.3-0.1l0.3-0.3l0.8-0.6
		l0.2-0.3l0.1-0.1l0.6-0.9l0.2-0.2l0.3-0.9l0.3-0.5l0.4-0.9l0.2-0.9l0.2-1.1h0.1v-0.2l0.1-1.1l0.1-0.4l0.2-0.2l0.1-0.2h0.3l1-0.1
		v-0.1l0.2,0l0.7-0.3l0.6-0.1l0.4-0.1l0.1-0.1l0.2-0.1l0.2-0.2h0.1v-0.1h0.2l0.1-0.2l0.2-0.1l0.2-0.2l0.4-0.3l0.4-0.6l0.2-0.9
		l-0.1-1L39.8,72.9z M32.3,71L32,71l0-0.1l0.1-0.3l0.2,0.1V71L32.3,71z M26.8,72.7L26.8,72.7l0.2-0.1l0.1,0.1l0,0.3h-0.3V72.7z
		 M26.3,73.8l0.2-0.1l0.1,0.1l-0.1,0.2L26.3,74l0-0.1V73.8z M26.2,73.2l0,0.1L26.2,73.2L26,73.3l-0.1-0.2L26.2,73.2z M25.7,71.1h0.1
		v0.2h-0.1V71.1z M19.8,83l-0.1,0.2h-0.1l0-0.1l0-0.1l0.1-0.1l0.2-0.1V83z M33.3,78.1h-0.2v-0.2h0.2V78.1z"/>
	<path id="XMLID_101_" class="st1" d="M25.7,44l0.4,16.9c0,1.6,1.8,1.4,4,1.4c3.1,0,3.3-0.4,3.5-1.4L35,45.1l14.4,1.9
		c0.9,0.1,1.7-0.2,2.4-1c0.6-0.7,1.5-1.7,2.2-2.9c-0.8,5.3-2.1,10.9-3.9,16.7c-0.6,2.2,0.1,2.5,3,2.5c3.2,0,3.9-0.1,4.7-2.1
		C62,50.6,67,37,67,26.9c0-14-9.3-23-28.8-23c-21.1,0-34.1,9.4-34.1,19C4.1,28.4,9.9,34,15.7,34c0.2,0,0.8-0.1,1-0.3
		c0.3-0.4,1.4-1.9,1.7-2.5c0.2-0.6,0.3-1.3-0.6-1.5c-2.2-0.5-5.3-2.5-5.3-4.6c0-2.9,5.1-6,12.6-7.6l0.5,20.2h-10
		c-0.7,0-0.9,0.3-0.7,1c0.2,0.9,0.9,2.5,1.6,3.4c0.5,0.7,0.8,0.8,1.4,0.9L25.7,44z M37.5,16.6C51.3,17.3,55,22.8,55,31.1
		c0,2.1-0.1,4.3-0.3,6.5h-19L37.5,16.6z"/>
	<path id="XMLID_104_" class="st1" d="M176.3,40.4c0-3.3-2.7-6.9-2.7-8.2c0-0.5,0.4-1,0.7-1.4c0.5-0.5,0.6-0.8,0.6-1.2
		c0-1.2-3.5-4.9-5.2-4.9c-0.3,0-0.6,0.1-0.9,0.4c-3,4.1-8.3,10.1-11.1,13.3c-0.1,0.1-0.2,0.1-0.3,0.3c-4.5,5.2-7.5,6.8-8.7,7.3
		c-1.2,0.5-1.1-0.2-0.9-0.6l4.5-12.2c1.2-3.3,0.4-5.7-3-5.7c-3,0-7.4,2.9-10.3,5.8v-0.1c1.3-3.3,0.4-5.7-3-5.7
		c-3,0-7.4,2.9-10.3,5.8l1.6-4.4c0.3-0.7-0.1-1.4-4.1-1.4c-4,0-5.3,0.7-5.4,1.4l-2.5,10.3c-0.5,0.5-1,1.1-1.4,1.5
		c-1.6,1.6-3.2,2.2-4.7,2.1c1.6-2.6,2.6-5.6,2.6-8.5c0-3.6-1.5-6.9-5.5-6.9c-1.2,0-2.4,0.4-3.6,1.2c-1.4-1.8-3.5-3.9-4.5-3.9
		c-2.3,0-11.3,7.9-11.4,16.8c-1.4,1.4-2.6,2.4-3.6,3.1c-3.2,2.2-5.8,2.3-5.1,0.5l4.6-12.4h3.8c0.3,0,0.6-0.3,0.8-0.5
		c1-1.2,1.9-2.8,2-3.8c0.1-0.7-0.3-0.8-0.9-0.8h-3.8l2.7-7.3c0.9-2.4-6.8-8.3-8.1-8.3c-0.5,0-0.7,0.4-0.7,0.7l-3.6,14.8h-1.6
		c-0.3,0-0.6,0.2-0.8,0.4c-1,1.2-1.9,2.8-2.1,3.9c-0.1,0.6,0.4,0.8,1,0.8h2.3l-3.5,14.1c-0.5,2,0.5,3.3,2.2,4l-0.1,0.1H72l-0.1,0.2
		l-0.2,0l-0.1,0.1l-1,1.1l-0.7,1.2l-0.2,0.2l-0.1,0.5l-0.2,0.3l0,0.3L69,54.8l-0.2,1.3l-0.2,0.3l0,0.7L68.4,58l0,1.1l0,1.3v1.4
		l0,1.3l0.3,1.2v0.5l0.1,0.1v0.2l0.2,1.4l-0.1,0.6l-0.3,0.6l-2.1,1.9l-1.1,0.9l-1.1,1l-2.2,1.9L61,74.4l-2.2,2l-1.1,0.9l-1.1,1
		l-1,0.9l-1.1,1.1l-0.3,0.1l-0.3,0.4l-1.2,1l-0.6,0.2l-0.3-0.1l-0.5-0.6l-0.3-0.7l-0.3-1.4l0-1.5l-0.1-1.2l0.1-0.8l0.6-1.1l0.5-1.3
		l1-1l0.3-0.5l0.6-0.5l1.2-0.9l0.7-0.3l0.7-0.1v-0.1h0.2l1-0.3l1.5-0.1l1.5,0l1.3,0.3l0.4,0l0.5-0.3l0.6-1l0.3-0.6l0-0.4l-0.2-0.3
		l-0.5-0.4l-0.4,0L61,66.3l-1.5-0.2l-1.5,0l-1.5,0.1l-0.7,0.1l-0.1,0.1l-0.6,0l-0.5,0.2L54.5,67h-0.2l-0.1,0.2H54l-0.2,0.3l-0.3,0
		l-0.7,0.4h-0.2v0.1h-0.2L52,68.2l-0.9,0.6l-0.5,0.5l-0.6,0.4L49.9,70h-0.2l-0.1,0.2l-0.3,0.3l-0.1,0.3l-0.2,0l-0.4,0.8l-0.5,0.5
		L48,72.6l-0.2,0.3L47.6,74l-0.1,0.1l-0.1,0.3l-0.4,1v0.6l-0.1,0.3v1.5l0.2,1.3l0.1,1.4l0.1,0.2v0.2l0.3,0.8L48,83l0.2,0.2l0.5,0.8
		h0.1l0.2,0.5l0.2,0.6l-0.1,0.6l-0.5,0.6l0,0.3l-0.1,0.1l-0.7,1.2L47,89.1l0,0.7l-0.1,0.6l-0.3,0.4V91l-0.2,0.1v0.2l-0.1,0.1
		L46,92.2l0,1.4L45.8,95v0.7l0.8,0.6l1.1,0.1l0.7-0.1l0.3-0.2l0,0l0.1-0.3l0-0.6l-0.1-1.4l0.2-0.7l0-0.7l0.2-0.5l0.4-1.3l0.1-0.1
		v-0.2l0.2-0.1l0-0.2l0.3-0.3v-0.2h0.1l0.2-0.7h0.1v-0.2H51v-0.2l0.6-0.5l0.3-0.1l0.4,0L53,88l0.5,0.4l0.2,0l0.3,0.2l0.5,0.1
		l0.7,0.4l0.6,0l0.5,0.2l1.4,0.4l0.8,0l1.4,0l1.5,0.1h1.5l0.1-0.1l0.8-0.1l1.5-0.2l1.2-0.4v-0.1h0.2V89h0.2v-0.1h0.2v-0.1h0.2
		l0.1-0.1l1.1-0.6l0.2,0l0.6-0.4l1-1l1-0.9l0.9-1l0.4-0.9l0.1-0.1l0.3-0.9l0.3-0.4l0.5-1.2l0.1-1l0.4-1.4v-0.5l-0.1-1.3l0-1.4
		l-0.1-1.4l-0.1-1.3l-0.2-1.3l-0.1-0.1v-0.9l-0.4-1.3l-0.1-0.7l0.1-0.7l0.3-0.6l1.1-0.9l2.2-1.8l0.4-0.6l0.1-0.1l1-1l0.7-1.1
		l0.6-0.3l1-1l0-0.3L81,60v-0.2l0.3-0.3l0.4-1.2l0.5-1.3l0.2-1.3l0-0.7l-0.1-1.4h-0.1l-0.1-0.5l-0.1-0.1l-0.7-1.3l-0.9-0.9l-0.4-0.1
		v-0.1h-0.2v-0.1h-0.1c1.4-0.4,2.7-0.9,4-1.7c1.4-0.8,2.8-1.8,4-2.7c1.3,3,4.2,5.1,8.9,5.1c3.3,0,6.7-1.8,9.5-4.4
		c1.2,0.3,2.3,0.4,3.5,0.4c1.5,0,2.9-0.5,4.1-1.2l-0.8,3.3c-0.4,1.5,0.9,1.6,3.1,1.6c2.4,0,2.6-0.5,3.2-1.6l0.5-1.4
		c1.7-4,6-11.8,8.7-11.8c0.5,0,0.7,0.5,0.5,1.2l-2.8,12.1c-0.4,1.5,0.9,1.6,3,1.6c2.5,0,2.7-0.5,3.2-1.6l0.5-1.4
		c1.7-4,6.2-11.8,8.9-11.8c0.5,0,0.7,0.5,0.6,1.2l-2.3,9.5c-0.7,3,1.8,4.4,4.7,4.4c5.6,0,12.1-5.9,14.5-8.1c0,0,0,0,0,0
		c2-1.9,4.8-4.1,7.4-6.4c0.9,2.2,2,3.7,2,5.5c0,2.1-1.3,4.1-3.7,4.1c-2.1,0-2.6-2.8-3.7-2.8c-0.7,0-3,2.6-3.2,2.9
		c-0.3,0.3-0.4,0.8-0.1,1.2c2,2.5,4.1,3.6,7.4,3.6C171.6,51.3,176.3,46.2,176.3,40.4z M72.3,67.6L72.3,67.6l0,0.3l-0.1,0.3l-0.9,0
		V68l0.4-0.3H72.3z M70.5,65.9l0.3-0.1v-0.3l0.2-0.2h0.3l0.1,0.4h0.3l0.4,0.2l-0.1,0.3l-0.3,0.2h-0.2l-0.2-0.3L71,66.2h-0.3
		l-0.1-0.1V65.9z M70.5,76.5l-0.2,1.4l-0.1,1.3l-0.4,1.4l-0.6,1.3l-0.4,0.5l-0.7,1l-1.1,1L66,85.3l-1,0.5l-0.7,0.2l-1.2,0.3
		l-1.5,0.2l-1.5,0.1l-1.5-0.1l-0.1-0.1l-1-0.2l-0.2-0.1L56.7,86l-0.1-0.1l-0.9-0.3l-0.2-0.2L54.9,85l-0.2-0.3l0-0.4l0.4-0.5l0.6-0.5
		l1.1-1l1-0.9l1.1-0.9l0.3-0.1l0.4-0.6l0.3-0.2l0.5-0.6l0.4-0.2l0.5-0.5l1.1-0.9l1.1-1l1-1l1.1-1l0.6-0.4l0.5-0.5l1.1-1l1.2-0.8
		l0.1,0l0.2-0.2l0.4,0.2l0.2,0.3l0.3,1.2l0,1.4l0.3,1.4V76.5z M70.6,66.7l0.3,0.1l0,0.2l-0.1,0.1h-0.2L70.5,67L70.6,66.7z
		 M71.3,69.1l-0.3,0l-0.3-0.1l0-0.2h0.1l0.2-0.1h0.4l0,0.1L71.3,69.1z M71.7,69.5h-0.2v-0.1l0.1-0.2l0.2,0.1L71.7,69.5z M72.4,69.1
		L72.4,69.1l-0.2-0.2v-0.2l0.2,0.1V69.1z M72.7,77.2L72.7,77.2L72.5,77l0.1-0.3l0.1,0l0,0.3L72.7,77.2z M73.4,76v0.1l-0.2,0.2
		L73,76.2l0-0.2H73.4z M79,56.5l-0.2,1.3l-0.2,0.3l-1.1,1l-0.8,1.2L76,60.8l-1.1,1l-1,1l-0.7,0.3l-0.3,0L72.6,63l-0.2-0.6l0-0.6
		l0.1-0.7l0-0.7l-0.1-0.3v-0.2l0.1-0.3l-0.1-0.5l0.1-0.7l0.2-1.4l0.3-1.3l0.1-0.1l0.3-0.6l0.2-0.1l0.5-0.8l1.1-0.9l0.1,0l0.6-0.1
		l0.1-0.1l1.5,0.1l1,0.6v0.2l0.3,0.2l0.1,0.3l0.1,0.1l0,0.3H79l0.1,0.4L79,56.5z M97.9,46.5c-2,0-3.5-1.6-3.5-4.1
		c0-2.6,1.9-5.4,4.3-7.7c-0.1,0.5-0.1,1.2-0.1,1.8c0,4,1.4,6.8,3.7,8.5C100.9,45.9,99.3,46.5,97.9,46.5z M105.8,40.9
		c-0.9-1.1-1.4-2.6-1.4-4.1c0-1.1,0.7-1.7,1.4-1.7c0.5,0,1,0.4,1,1.4C106.7,38.1,106.4,39.6,105.8,40.9z"/>
	<path id="XMLID_118_" class="st1" d="M152.3,74.5l-0.7-0.1l-0.2,0.1l-0.6,0.6l-0.3,0.6l-0.3,0.2l-0.1,0.3l-0.2,0.1l-0.2,0.3v0.2
		l-0.3,0.2l0,0.2l-0.2,0.2l-0.1,0.3l-0.2,0.1v0.2l-1,1l-0.3,0.1l-0.4,0.5l-1.1,0.9l-0.8,0.6l-0.5,0.1l-1.4,0.5l-0.3,0.2l-0.7,0.1
		l-1.5,0.3h-1.4l-1.5-0.1l-1.5-0.3l-0.6-0.4l-0.2-0.6l0-0.4l0.3-1.1l0.7-0.7l1.4-0.3l1.5-0.2v-0.1h0.2l1-0.3l0.1-0.1l0.5-0.1
		l0.3-0.2l0.2,0l0.3-0.2l1.1-0.9l0.9-1l0.3-0.6l0.3-0.3v-0.2l0.2-0.1l0.1-0.3l0.1-0.1l0.1-0.3l0.3-0.2l0.2-0.4l0.7-1.2l0.7-1.2
		l0-0.3h0.1v-0.2h0.1v-0.2h0.1v-0.2h0.1V69h0.1v-0.2h0.1v-0.2l0.2-0.3l0.3-0.5l0.2-0.7h0.1l0.2-0.7h0.1v-0.2h0.1l0.2-0.9l0.7-1.2
		l0-0.3l0.2-0.1l0.2-0.5l1-2.4l0-0.4l0.1-0.1l0.2-0.6l0.1-0.1l0.4-1.1l0-0.7l0.2-1.2l0-0.8l-0.2-1.3h-0.1l-0.1-0.8l-0.7-1l-0.5-0.5
		l-1.3-0.4l-0.7,0l-0.7,0.1l-0.7-0.1l-0.7,0.1l-1.4,0.4l-0.1,0.2l-0.3,0.1l-1,0.8l-0.9,1h-0.1l-0.2,0.3l0,0.3l-0.2,0.1v0.2l-0.5,0.5
		v0.2l-0.3,0.3l-0.1,0.3l-0.5,1.2l-0.6,1.3l-0.2,0.2l-0.1,0.3l-0.1,0.1l-0.4,1.2l-0.1,0.1l-0.4,1.2l-0.3,0.5l-0.4,0.9l-0.2,0.7
		l-0.3,0.6l-0.5,1.3l-0.2,0.3l-0.3,0.7l-0.1,0.6l-0.2,0.3l0,0.3l-0.2,0.2l-0.2,0.6l-0.2,0.2l-0.3,0.7l-0.5,1.2l-0.4,0.9l-0.5,1.2
		l-0.6,1.3l0,0.1l-0.2,0.2l-0.3,0.6l-0.3,0.2l-0.1,0.3l-0.2,0.1l-0.2,0.3v0.2l-0.3,0.2l0,0.2l-0.2,0.2l-0.1,0.3l-0.2,0.1v0.2l-1,1
		l-0.3,0.1l-0.4,0.5l-1.1,0.9l-0.8,0.6l-0.5,0.1l-1.4,0.5l-0.3,0.2l-0.7,0.1l-1.5,0.3H122l-1.5-0.1l-1.5-0.3l-0.6-0.4l-0.2-0.6
		l0-0.4l0.3-1.1l0.7-0.7l1.4-0.3l1.5-0.2v-0.1h0.2l1-0.3l0.1-0.1l0.5-0.1l0.3-0.2l0.2,0l0.3-0.2L126,76l0.9-1l0.3-0.6l0.3-0.3v-0.2
		l0.2-0.1l0.1-0.3l0.1-0.1l0.1-0.3l0.3-0.2l0.2-0.4l0.7-1.2L130,70l0-0.3h0.1v-0.2h0.1v-0.2h0.1v-0.2h0.1V69h0.1v-0.2h0.1v-0.2
		l0.2-0.3l0.3-0.5l0.2-0.7h0.1l0.2-0.7h0.1v-0.2h0.1l0.2-0.9l0.7-1.2l0-0.3l0.2-0.1l0.2-0.5l1-2.4l0-0.4l0.1-0.1l0.2-0.6l0.1-0.1
		l0.4-1.1l0-0.7l0.2-1.2l0-0.8l-0.2-1.3h-0.1l-0.1-0.8l-0.7-1l-0.5-0.5l-1.3-0.4l-0.7,0l-0.7,0.1l-0.7-0.1l-0.7,0.1l-1.4,0.4
		l-0.1,0.2l-0.3,0.1l-1,0.8l-0.9,1h-0.1l-0.2,0.3l0,0.3l-0.2,0.1v0.2l-0.5,0.5v0.2l-0.3,0.3l-0.1,0.3l-0.5,1.2l-0.6,1.3l-0.2,0.2
		l-0.1,0.3l-0.1,0.1l-0.4,1.2l-0.1,0.1l-0.4,1.2l-0.3,0.5l-0.4,0.9l-0.2,0.7l-0.3,0.6l-0.5,1.3l-0.2,0.3l-0.3,0.7l-0.1,0.6l-0.2,0.3
		l0,0.3l-0.2,0.2l-0.2,0.6l-0.2,0.2l-0.3,0.7l-0.5,1.2l-0.4,0.9l-0.5,1.2l-0.6,1.3l0,0.1l-0.1,0.1l-0.7,1.1l-0.1,0.3l-0.1,0v0.2
		l-0.1,0l-0.3,0.6l-0.2,0.1l-0.1,0.3l-0.2,0.1l-0.1,0.3l-0.5,0.3l0,0.2l-0.2,0.3l-0.9,1.2v0.2l-0.3,0.4l-0.5,0.4l-1,1.1l-0.8,0.9
		l-0.7,0.3l-1.5,0.6l-0.7,0.1l-0.5-0.1l-0.5-0.4l-0.2-0.7l0-0.7l0.2-0.7l0.4-1.2l0.5-1.3l0.4-1.2l0.7-1.2l0.4-1l0.1-0.1l0.1-0.5
		l0.5-0.9l0.5-1.2l0.2-0.2v-0.2h0.1l0.4-1.4l0.2-0.2l0-0.3l0.2-0.3V70h0.1v-0.2l0.5-0.9l0.5-1.2l0.6-1.2l0.5-1.3v-0.7l-0.2-0.1v-0.2
		l-0.5-0.3h-0.8l-0.7,0.1l-1.5,0.1l-0.6,0.6l-0.2,0.6l-0.5,1.2l-0.1,0.1l-0.1,0.4l-0.2,0.3l-0.1,0.3l-0.5,1.2l-0.6,1.2l-0.4,1.3
		l-0.5,1.2l-0.5,1.4l-0.4,0.5v0.2h-0.1v0.2h-0.1v0.2h-0.1v0.2h-0.1l-0.3,0.6l-0.1,0.6h-0.1v0.2h-0.1v0.2h-0.1l0,0.2l-0.1,0.1v0.2
		h-0.1v0.2H103v0.2h-0.1v0.2l-0.2,0.1l-0.1,0.2l-0.9,1.1v0.2h-0.1v0.2h-0.1v0.2l-0.2,0.1V80l-0.3,0.2l-0.4,0.6l-2.1,1.9l-1.2,0.9
		l-0.7,0.3l-0.6,0l-0.6-0.4l-0.4-0.6v-0.5l0.4-1.4l0.3-0.6l0.5-1.2l0.4-1.2l0.2-0.3v-0.1l0.4-0.9l0.2-0.6l0.3-0.4l0.5-1.3h0.1v-0.2
		l0.2-0.3l0.4-0.9l0.5-1.4l0.3-0.6l0.3-0.7l0.2-0.3l0.5-1l0.4-1.2l0.1,0l0.1-0.6l0.2-0.2v-0.2l0.2-0.1l0.1-0.4l0.1-0.1l0.3-1.4
		l-0.1-0.3l-0.5-0.4l-0.6,0l-0.7,0.1l-1.5,0l-0.5,0.3l-0.3,0.4l-0.5,1.3h-0.1L97.3,67l-0.1,0.1l-0.2,0.9l-0.3,0.3l0,0.3l-0.4,0.6
		L96,69.8L95.4,71l-0.5,1.2l-0.4,1.3L94,74.2l-0.1,0.6l-0.1,0.1l0,0l-0.3,0.3l-0.6,0.9l-0.2,0.1v0.2h-0.1v0.2h-0.1v0.2L92,77.3
		l0,0.3l-0.5,0.3l-0.1,0.2l-0.9,1.2v0.1l-0.3,0.2l-0.1,0.2l-1.1,1l-1,1.1l-0.5,0.4l-0.7,0.3l-0.5,0.5l-0.9,0.5l-0.3,0l-0.1,0.1
		l-0.7,0.3l-0.7,0.1l-0.2-0.1l-0.7-0.5l-0.2-0.3l-0.1-0.6l0.3-1.5l0.4-0.8l0.2-1.3l0.2-0.5l0.7-1.2l0.5-1.3l0.5-1.3l0.6-1.3l0.5-1.2
		l0.7-1.3l0.6-1.2l0.4-1.2l0.2-0.6h0.1v-0.2h0.1v-0.2h0.1v-0.2h0.1v-0.2h0.1v-0.2H89l0.2-0.7h0.1v-0.2l0.3-0.7l0.2-0.6l0.2-0.2
		l0.5-0.3v-0.1h0.2V64h0.2v-0.1h0.2v-0.1h1.1l0.7,0.2h0.8l0.3-0.1l0.7-0.6l0.3-0.6l-0.2-0.5l-0.6-0.4l-0.5,0L92,61.7l-0.5-0.4l0-0.2
		l0.2-0.7l0.3-0.5l0.3-1l0.4-0.5l0.3-0.6l0.5-1.2l0-0.7l-0.1-0.2l0,0l-0.2-0.1l-0.7-0.1l-1.8,0l-0.7,0.1l-0.5,0.4l-0.3,0.6l-0.7,1.3
		L88.1,59l-0.4,0.6l-0.1,0.4l-0.4,0.9l-0.9,0.7l-0.6,0l-0.1,0.1h-0.3l-1.5-0.1L83,61.9l-0.8,0.5L82.1,63l0.4,0.4l0.7,0.3l0.1,0.2
		h1.1l0.6,0.2l0.4,0.4v0.6l-0.3,0.6l0,0.3l-0.2,0.2l-0.2,0.5l-0.5,1.1l0,0.3l-0.4,1.2l-0.2,0.2L83,70.6l-0.2,0L82.8,71l-0.3,0.3
		l-0.4,1.3L82,72.7v0.2L81.4,74l-0.5,1.3l-0.5,1.2h-0.1v0.2h-0.1v0.1l-0.4,1.4l-0.3,0.8L79,80.1l-0.4,1.3l-0.1,0.1v1.1l-0.1,0.2v0.8
		l0.1,0.6l0.6,1.2l0.5,0.6l0.3,0l0.4,0.3l0.8,0.2h0.4l0.2,0.1l0.7,0.1h1.6l0.6-0.1l0.5-0.3l0.3,0l0.3-0.3l1-0.3l0.2-0.2h0.2l0.3-0.3
		l1.2-0.7l0.2-0.3l0.8-0.6l1-1.1l0.4-0.4v0.8l0.1,1.2l0.2,0.4l0,0.3l0.3,0.2l0.6,0.8l0.8,0.6l1.4,0.3h0.7l1.5-0.1l0.2-0.2l0.3-0.1
		l0.3-0.2h0.2l0.2-0.3l0.3-0.1l1.3-0.8l1.2-0.9l0.3-0.1l0.4,0.1l0.5,0.6l0.4,0.6l0.5,0.6l0.6,0.4l0.6,0.2l1.5,0.2h1.6l0.7-0.2
		l0.7-0.3h0.3v-0.1l0.2,0l0.3-0.2l1.2-0.8l0.3-0.1l0.2-0.3l0.7-0.5l0.6-0.5l-0.2,0.4h-0.1v0.2h-0.1l0,0.3l-0.1,0.1l-0.3,0.8
		l-0.5,1.3l-0.2,0.2l-0.3,0.8l-0.1,0.6l-0.1,0v0.2h-0.1v0.2h-0.1v0.2H110v0.2l-0.1,0.1l-0.3,0.5l0,0.3l-0.7,1.2l-0.1,0.3l-0.4,1.3
		l-0.6,1.3l0,0.6l-0.1,0.1l0,1.1l0.2,1.5l0.2,0.4l0.5,0.6l1.3,0.7l0.7,0l0.1,0.1l0.5,0l1.5,0h0.1l0.5-0.3l0.7-0.2l0.3-0.3l0.5-0.1
		l0.2-0.3h0.2l0.2-0.3l0.3-0.2v-0.2l0.5-0.4l0.8-1.1l0.1-0.4l0.6-0.9l0.8-1.2l0.2-0.7l0.5-1.2l0.6-1.1l0.2-1.3l0.3-1.3l0.3-1.4
		l0.3-1.5l0.4-0.5l0.7-0.2l0.9-0.2l1.5-0.1l0.1,0.1l0.9-0.1l1.5-0.4l1.2-0.6l0.3,0l0.2-0.3l0.3,0l0.2-0.2h0.1l1-0.5l0.2-0.3l0.4-0.1
		l0.3-0.4l-0.1,0.3h-0.1v0.2h-0.1V82l-0.3,0.2l-0.3,0.6l-0.5,1.2h-0.1v0.2h-0.1l0,0.3l-0.1,0.1l-0.3,0.8l-0.5,1.3l-0.2,0.2l-0.3,0.8
		l-0.1,0.6l-0.1,0v0.2h-0.1v0.2h-0.1v0.2h-0.1v0.2l-0.1,0.1l-0.3,0.5l0,0.3l-0.7,1.2l-0.1,0.3l-0.4,1.3l-0.6,1.3l0,0.6l-0.1,0.1
		l0,1.1l0.2,1.5l0.2,0.4l0.5,0.6l1.3,0.7l0.7,0l0.1,0.1l0.5,0l1.5,0h0.1l0.5-0.3l0.7-0.2l0.3-0.3l0.5-0.1l0.2-0.3h0.2l0.2-0.3
		l0.3-0.2v-0.2l0.5-0.4l0.8-1.1l0.1-0.4l0.6-0.9l0.8-1.2L136,93l0.5-1.2l0.6-1.1l0.2-1.3l0.3-1.3l0.3-1.4l0.3-1.5l0.4-0.5l0.7-0.2
		l0.9-0.2l1.5-0.1l0.1,0.1l0.9-0.1l1.5-0.4l1.2-0.6l0.3,0l0.2-0.3l0.3,0l0.2-0.2h0.1l1-0.5l0.2-0.3l0.4-0.1l0.5-0.6l0.2,0l0.6-0.4
		l0.5-0.5l1.1-0.9v-0.2l0.4-0.3l0.2-0.3l0.9-1.1v-0.2h0.1v-0.2l0.2,0l0-0.3l0.3-0.3l0.2-0.5v-0.2l-0.2-0.6L152.3,74.5z M142.3,74.5
		l-0.2,0.2v0.4H142l-0.2-0.1l0-0.3l0.2-0.5l0.2,0l0.3,0.1L142.3,74.5z M143,74.5L143,74.5l0.3-0.2l0.1,0.3L143,74.5z M144.2,73.2
		l-0.2,0l0-0.1l0.3-0.1L144.2,73.2z M142.2,61.6h0.2v0.2h-0.2V61.6z M138,74.8l0.5-1.3l0.6-1.3l0.2-0.2v-0.2h0.1l0-0.5l0.3-0.3v-0.3
		l0.1-0.1l0.6-1.3l0.4-1.3l0.2-0.3l0.2-0.6l0.2-0.2v-0.2l0.5-0.9l0.3-0.3l0.2-1l0.1-0.1l0.1-0.6l0.3-0.5l0-0.4l0.1,0l0.2-0.6
		l0.2-0.1v-0.2h0.1v-0.2h0.1v-0.2h0.1v-0.2h0.1v-0.2l0.2-0.2l0.4-1L145,59l0.6-1.2l0.5-0.6l0.9-1.1l0.6-0.5h0.2l0.2-0.2l0.3-0.1
		l0.4,0l0.3,0.1l0.5,0.5l0,0.9l-0.3,1.4l-0.5,1.3l-1,2.5l-0.2,0.3l-0.2,0.6l-0.3,0.6l-0.3,0.8l-0.1,0.6l-0.6,0.8l-0.6,1l-0.4,1
		l-0.3,0.4l-0.5,1.2l-0.2,0.2l-0.6,1l-0.7,1.2l-0.1,0.3l-0.2,0.2l0,0.2l-0.7,1.1l-0.2,0.1v0.2l-0.8,0.6l-0.8,0.7l0,0l-1.1,0.6h-0.4
		l-0.4-0.6L138,74.8z M137,74.7l0.3,0.1v0.1l-0.2,0.1l-0.1-0.1L137,74.7z M136.7,76.7h0.2l0.3,0.1V77l0,0h-0.4l-0.1-0.1V76.7z
		 M136.2,76.1l0.4,0.2l0,0.2l-0.1,0.3h-0.1l-0.3-0.2l0-0.3L136.2,76.1z M136.1,77.7l0.1-0.1l0.2,0.1l-0.1,0.2L136.1,77.7L136.1,77.7
		z M124.9,74.5l-0.2,0.2v0.4h-0.1l-0.2-0.1l0-0.3l0.2-0.5l0.2,0l0.3,0.1L124.9,74.5z M125.6,74.5L125.6,74.5l0.3-0.2l0.1,0.3
		L125.6,74.5z M126.8,73.2l-0.2,0l0-0.1l0.3-0.1L126.8,73.2z M124.8,61.6h0.2v0.2h-0.2V61.6z M120.6,74.8l0.5-1.3l0.6-1.3l0.2-0.2
		v-0.2h0.1l0-0.5l0.3-0.3v-0.3l0.1-0.1l0.6-1.3l0.4-1.3l0.2-0.3l0.2-0.6L124,67v-0.2l0.5-0.9l0.3-0.3l0.2-1l0.1-0.1l0.1-0.6l0.3-0.5
		l0-0.4l0.1,0l0.2-0.6l0.2-0.1v-0.2h0.1v-0.2h0.1v-0.2h0.1v-0.2h0.1v-0.2l0.2-0.2l0.4-1l0.5-1.1l0.6-1.2l0.5-0.6l0.9-1.1l0.6-0.5
		h0.2l0.2-0.2l0.3-0.1l0.4,0l0.3,0.1l0.5,0.5l0,0.9l-0.3,1.4l-0.5,1.3l-1,2.5l-0.2,0.3l-0.2,0.6l-0.3,0.6l-0.3,0.8l-0.1,0.6
		l-0.6,0.8l-0.6,1l-0.4,1l-0.3,0.4l-0.5,1.2l-0.2,0.2l-0.6,1l-0.7,1.2l-0.1,0.3l-0.2,0.2l0,0.2l-0.7,1.1l-0.2,0.1v0.2l-0.8,0.6
		l-0.8,0.7l0,0l-1.1,0.6h-0.4l-0.4-0.6L120.6,74.8z M119.6,74.7l0.3,0.1v0.1l-0.2,0.1l-0.1-0.1L119.6,74.7z M119.3,76.7h0.2l0.3,0.1
		V77l0,0h-0.4l-0.1-0.1V76.7z M118.7,76.1l0.4,0.2l0,0.2l-0.1,0.3H119l-0.3-0.2l0-0.3L118.7,76.1z M118.7,77.7l0.1-0.1l0.2,0.1
		l-0.1,0.2L118.7,77.7L118.7,77.7z M97.9,70.1l0.2,0.1l0,0.2H98l-0.1,0l0-0.1L97.9,70.1z M88.3,62.1l0.1,0.1l0.2,0.3l0,0.1l-0.4,0
		l0-0.1l0-0.2L88.3,62.1z M87.8,63.5l0.1-0.2l0.2,0l0.3,0.4l-0.1,0.3h-0.1L88,64l-0.2-0.3V63.5z M84.5,72.7l0.2,0.1L84.6,73
		l-0.2-0.1L84.5,72.7z M104,81.6h-0.2v-0.2h0.2V81.6z M104.1,79.5l0.1-0.3h0.2l0.1,0.3l-0.1,0.2h-0.2L104.1,79.5z M104.5,82.3
		l-0.2,0v-0.1l0.1-0.4h0.2l0.1,0.1l0,0.3L104.5,82.3z M118,85.6l-0.3,1.3l-0.3,1.3l-0.4,1.3l-0.1,0.1l0,0.3l-0.3,0.6l-0.2,0.3l0,0.3
		l-0.4,1.3l-0.2,0.2l0,0.3l-0.6,0.9l-0.7,1.2l-1,1.2l-0.6,0.4l-0.7,0.1l-0.4-0.2l-0.2-0.3v-1l0.5-0.8l0.1-0.5l0.4-0.7l0.5-1.3
		l0.2-0.2l0.2-0.6l0.6-1.3l0.4-0.6l0.3-1.1l0.7-1.2l0.6-1.4l0.4-0.9v0l0.1-0.2l0.6-0.5l0.2,0l0.4,0.1l0.4,0.5L118,85l0.1,0.1
		L118,85.6z M135.5,85.6l-0.3,1.3l-0.3,1.3l-0.4,1.3l-0.1,0.1l0,0.3l-0.3,0.6l-0.2,0.3l0,0.3l-0.4,1.3l-0.2,0.2l0,0.3l-0.6,0.9
		l-0.7,1.2l-1,1.2l-0.6,0.4l-0.7,0.1l-0.4-0.2L129,96v-1l0.5-0.8l0.1-0.5l0.4-0.7l0.5-1.3l0.2-0.2l0.2-0.6l0.6-1.3l0.4-0.6l0.3-1.1
		l0.7-1.2l0.6-1.4l0.4-0.9v0l0.1-0.2l0.6-0.5l0.2,0l0.4,0.1l0.4,0.5l0.1,0.7l0.1,0.1L135.5,85.6z"/>
	<path id="XMLID_147_" class="st1" d="M293.5,73.4c0-6.9-3.8-13.4-10.2-18.8c2.2-1.7,3.6-4.4,3.6-7.4c0-4-2.5-7.4-6.1-8.7
		c0.3-14.5-4.2-26-13.3-30.7c-9.1-4.7-21.1-1.6-32.7,7c-2.6-1.7-5.2-3.3-7.8-4.6c-1-4.1-4.7-7.1-9.1-7.1c-2.3,0-4.5,0.9-6.1,2.3
		c-5.4-0.6-10.2,0.4-14.1,3.1c-9.1,6.2-11.3,20.4-7.4,37.4c-15.1,6.4-24.8,16.3-24.8,27.5c0,11.1,9.6,21,24.5,27.4
		c0.4,4.5,4,8.1,8.5,8.5c2.2,5.6,5.7,9.9,10.4,12.3c8.2,4.2,18.6,2.2,29-4.5c15.2,11,30.2,14.7,39.7,8.1c8.7-5.9,11.1-19.1,7.9-35.1
		C290.7,85.2,293.5,79.5,293.5,73.4z M274.3,69.4c3.8,7.2,6.6,14.4,8.4,21c-6.6,4.9-16.1,8.7-27.1,10.8c5-5.9,9.6-12.9,13.6-20.6
		C271.2,76.8,272.8,73.1,274.3,69.4z M208.8,57.3c2.1-4.1,4.4-7.9,6.8-11.4c6.5-1.4,13.5-2.1,20.9-2.1c7.9,0,15.3,0.8,22.1,2.4
		c2.7,3.2,5.3,6.7,7.8,10.3c1.2,1.7,2.3,3.5,3.4,5.2c-1.7,7.3-4.6,15-8.5,22.6c-3.4,6.6-7.3,12.6-11.5,17.7
		c-4.3,0.5-8.8,0.8-13.4,0.8c-3,0-6-0.1-8.9-0.4c-3.4-3.9-6.7-8.1-9.9-12.7c-5.5-8-9.8-16.1-12.9-23.9
		C206,63.1,207.3,60.2,208.8,57.3z M202.5,59.5c-0.9-3-1.7-5.9-2.2-8.7c2.3-1,4.9-2,7.5-2.8c-0.1,0.3-0.3,0.5-0.4,0.8
		C205.5,52.3,203.9,55.9,202.5,59.5z M267.4,48.7c0.4,0.1,0.7,0.2,1.1,0.4c0.4,2,1.4,3.7,2.8,5c0,0.2-0.1,0.4-0.1,0.6
		C270,52.7,268.8,50.7,267.4,48.7z M260.9,20.6c6.2,3.2,9.8,10.2,10.8,19.4c-1.7,1.4-2.9,3.4-3.2,5.7c-1.3-0.6-2.7-1.1-4.1-1.6
		c-6.6-9.1-13.9-16.9-21.2-23.1C249.6,18.3,255.8,18,260.9,20.6z M235.2,25.5c6.3,3.8,12.8,9.2,19.1,15.8c-7.6-1.7-16-2.7-24.7-2.7
		c-2.9,0-5.8,0.1-8.7,0.3C225.5,33.4,230.3,28.9,235.2,25.5z M206.8,21.7c1.5-1.1,3.3-1.8,5.2-2.2c1.6,1.4,3.8,2.3,6.1,2.3
		c2,0,3.8-0.6,5.3-1.6c1.3,0.4,2.6,0.8,3.9,1.3c-5.2,5.1-10.2,11.3-14.7,18.5c-4.6,0.7-9,1.7-13.2,2.9
		C198.7,33.1,201.2,25.5,206.8,21.7z M193.7,92.6c-8.5-5.2-13.6-11.9-13.6-19.2c0-7.1,4.8-13.7,12.8-18.8c1.6,4.9,3.7,9.9,6.2,14.9
		c-2.2,7.7-3.3,15.1-3.4,21.8C195,91.7,194.3,92.2,193.7,92.6z M198.6,90.7c0.5-5.1,1.5-10.5,3.2-16c2.2,4,4.6,7.9,7.3,11.8
		c3.8,5.6,7.9,10.7,12.1,15.3c-4.4-0.7-8.6-1.6-12.5-2.7c-0.5-4.7-4.4-8.4-9.3-8.4C199.1,90.7,198.8,90.7,198.6,90.7z M209.3,121.1
		c-4.4-2.2-7.4-6.4-9.2-11.8c2.6-0.2,4.9-1.5,6.5-3.4c6.5,1.4,13.5,2.2,20.8,2.3c2.9,2.7,5.7,5.2,8.6,7.4
		C226.4,122.5,216.7,124.9,209.3,121.1z M232.9,108.1c4.3-0.1,8.6-0.5,12.7-1c-2.2,2.4-4.5,4.5-6.8,6.4
		C236.7,111.8,234.8,110,232.9,108.1z M277.5,124.8c-8.6,5.9-22.6,1.7-36.6-9.5c3.5-2.5,7-5.6,10.4-9.1c13.2-2.6,24.5-7.5,32-13.8
		C286.8,107.2,285.2,119.5,277.5,124.8z M276.3,63.8c0.8-2.5,1.5-4.9,2.1-7.3c1.2-0.1,2.3-0.4,3.3-0.9c7.1,4.9,11.4,11.1,11.4,17.8
		c0,5.5-2.8,10.6-7.8,15C283.5,80.6,280.5,72.3,276.3,63.8z"/>
</g>
</svg>
