<svg id="Layer_1" data-name="Layer 1" xmlns="http://www.w3.org/2000/svg" viewBox="0 0 650 650"><defs><style>.cls-1{fill:#333;}</style></defs><title>Untitled-8</title><path class="cls-1" d="M403.72,216.49c5.25-8.95,9.88-17.28,15.12-26.23-2.16-1.23-4-2.16-6.48-3.39-4.94,8.64-9.57,16.66-14.81,25.61C399.71,214,401.56,214.94,403.72,216.49Z" transform="translate(-7 -7)"/><path class="cls-1" d="M425.32,132.54c-4.63-1.85-8.64-3.7-13-5.55-0.93,3.09-1.85,5.25-2.78,8,4.32,1.85,8,3.39,12.34,5.25C423.16,137.48,424.09,135.32,425.32,132.54Z" transform="translate(-7 -7)"/><path class="cls-1" d="M450.93,146.12c-4-2.47-7.72-4.32-12.34-7.1a74.5,74.5,0,0,0-3.39,7.72c4.32,2.47,7.72,4.63,11.73,6.79C448.47,150.75,449.39,148.59,450.93,146.12Z" transform="translate(-7 -7)"/><path class="cls-1" d="M370.39,115.88c-5.25-.62-9.26-1.23-14.2-1.85,0,3.39-.31,5.86-0.31,8.33,4.63,0.62,8.64,1.23,13.27,1.85C369.77,121.13,370.08,118.66,370.39,115.88Z" transform="translate(-7 -7)"/><path class="cls-1" d="M474.7,163.1c-4-3.09-7.41-5.55-11.42-8.64a33.6,33.6,0,0,0-4.32,7.1c3.39,2.78,6.79,5.25,10.49,8C471.3,167.11,472.85,165.26,474.7,163.1Z" transform="translate(-7 -7)"/><path class="cls-1" d="M398.47,122.67c-4.63-1.23-8.95-2.47-13.58-3.7-0.62,2.78-1.23,4.94-1.85,8,4.94,1.23,8.95,2.16,13.27,3.39A72.07,72.07,0,0,0,398.47,122.67Z" transform="translate(-7 -7)"/><path class="cls-1" d="M323.48,196.43H338.6c1.85-9.88,1.54-54.31-.31-60.18h-14.5C324.1,156.92,322.55,176.68,323.48,196.43Z" transform="translate(-7 -7)"/><path class="cls-1" d="M341.38,121.13v-7.41H328.11c0,2.78.31,4.94,0.31,7.41h13Z" transform="translate(-7 -7)"/><path class="cls-1" d="M541.66,285a77.32,77.32,0,0,0,8-2.16c-1.54-4.94-2.78-8.95-4-13.58-3.09,1.23-5.25,1.85-7.72,2.78C539.2,276,540.43,280.06,541.66,285Z" transform="translate(-7 -7)"/><path class="cls-1" d="M533.33,258.46c3.09-1.23,4.94-1.85,8-3.09-2.16-4.63-3.7-8.33-5.86-13-2.78,1.54-4.94,2.47-7.41,3.7C529.94,250.43,531.48,254.44,533.33,258.46Z" transform="translate(-7 -7)"/><path class="cls-1" d="M546.29,312.77c3.09-.62,5.25-0.93,8-1.54-0.62-4.63-1.23-8.64-1.85-13-2.78.31-5.25,0.62-8.33,0.93C544.75,304.13,545.68,308.14,546.29,312.77Z" transform="translate(-7 -7)"/><path class="cls-1" d="M348.79,481.89c-37.34,3.39-71.91-5.25-102.77-26.54-43.2-30.24-65.42-72.52-68.82-124.68H162.7c4.94,64.5,33.33,114.49,90.11,144.43C316.38,509,379.34,503.8,438,461.21c51.85-37.34,69.75-100.91,66-130.85H491.67C488.58,410,427.79,474.79,348.79,481.89Z" transform="translate(-7 -7)"/><path class="cls-1" d="M500,227.29c-18.21,10.49-35.49,20.68-53.7,31.17,2.78,4.94,5.25,9.26,8,14.2,18.52-10.49,36.42-21,54.31-31.48C505.25,235.93,502.78,231.61,500,227.29Z" transform="translate(-7 -7)"/><path class="cls-1" d="M514.2,204.76a121.88,121.88,0,0,1-8.64-11.11c-2.78,1.85-4.94,3.09-7.1,4.63,3.7,4.63,6.17,8,8.95,11.42C509.88,207.84,511.42,206.61,514.2,204.76Z" transform="translate(-7 -7)"/><path class="cls-1" d="M489.82,188.4c2.16-2.16,3.7-4,5.55-5.86-3.39-3.39-6.17-6.48-10.18-10.49l-5.55,5.56c0.62,0.31,1.54.62,2.16,0.93C484.26,181.61,487,184.7,489.82,188.4Z" transform="translate(-7 -7)"/><path class="cls-1" d="M529,229.45c-2.47-4.32-4.63-8-7.1-12a62.65,62.65,0,0,0-7.1,4.32c2.47,4.32,4.32,7.72,6.79,11.73C524.38,232.22,526.23,231,529,229.45Z" transform="translate(-7 -7)"/><path class="cls-1" d="M137.39,330.05c-5.86,57.71,38.88,133.93,100.3,167,74.07,39.81,147.21,34.87,215.72-14.2,54-38.58,81.16-106.16,78.08-152.45H518.21a177.18,177.18,0,0,1-15.12,68.2,183.55,183.55,0,0,1-39.81,58,191.6,191.6,0,0,1-58,38.27A176.1,176.1,0,0,1,336.44,509c-42.59.31-81.16-12.34-114.8-38.88-45.06-35.49-67.89-82.71-71.29-140.11h-13Z" transform="translate(-7 -7)"/><path class="cls-1" d="M141.4,246.42c-2.78-1.23-4.94-2.16-7.72-3.39-1.85,4.63-3.39,8.64-5.25,13,3.09,1.23,5.25,1.85,7.72,2.78C138,254.75,139.55,251,141.4,246.42Z" transform="translate(-7 -7)"/><path class="cls-1" d="M131.84,272.34c-2.78-.93-4.94-1.54-8-2.47-1.23,4.94-2.47,9.26-3.7,14.2,3.39,0.31,5.86.62,8.33,0.93C129.68,280.37,130.6,276.66,131.84,272.34Z" transform="translate(-7 -7)"/><path class="cls-1" d="M154.67,221.42c-2.78-1.23-4.94-2.47-7.41-3.7-2.47,4-4.32,7.72-6.79,12l7.41,3.7C150.35,229.14,152.51,225.44,154.67,221.42Z" transform="translate(-7 -7)"/><path class="cls-1" d="M189.85,179.14l-4.94-4.94c-3.7,3.09-7.1,5.86-11.11,9.57,2.47,1.85,4.32,3.39,6.48,4.94C183.37,185.32,186.15,182.54,189.85,179.14Z" transform="translate(-7 -7)"/><path class="cls-1" d="M170.72,199.51c-2.16-1.85-4-3.39-6.17-5.55-3.09,3.7-5.86,7.41-8.64,11.11,2.47,1.85,4.32,3.09,6.79,4.94C165.47,206.3,167.94,203.22,170.72,199.51Z" transform="translate(-7 -7)"/><path class="cls-1" d="M332,7C152.51,7,7,152.51,7,332S152.51,657,332,657,657,511.49,657,332,511.49,7,332,7Zm-0.5,622.09C167.94,628.78,34.93,495.77,34.93,331.9,35.24,167.73,168.25,35,332.74,35c163.87,0.31,296.88,133.32,296.57,297.19C629,496.39,495.68,629.09,331.5,629.09Z" transform="translate(-7 -7)"/><path class="cls-1" d="M334,71.13C194.48,70.21,72,182.54,71,331.9,70.73,475.41,188,593,331.5,593.29c144.43,0,262-117,262-260.77C593.82,189,476.86,72.06,334,71.13ZM331.5,571.07C200,570.77,93,463.37,93,331.9,93,200.13,200.35,93,332.43,93S571.6,200.75,571.6,332.52C571.29,464.3,463.59,571.38,331.5,571.07Z" transform="translate(-7 -7)"/><path class="cls-1" d="M125,299.19a62.42,62.42,0,0,0-8-1.23,107,107,0,0,1-1.85,13.89c3.09,0.31,5.25.62,8.33,0.93C124.12,308.14,124.43,304.13,125,299.19Z" transform="translate(-7 -7)"/><path class="cls-1" d="M555.55,327.58c-9.26-.31-10.18.62-10.8,7.41-0.93,8.33-1.23,16.66-2.47,24.69C524.38,470.16,420.38,548.24,308.67,534,239.23,525.09,186.77,489,151,428.81c-17-28.39-25.31-59.56-27.47-92.27a79.69,79.69,0,0,0-.93-8.95c-8.64-.93-10.49.31-9.88,7.72,0.93,13.27,1.54,26.85,4.32,39.81,31.48,150.29,202.45,225,333,144.43,65.73-40.43,100.91-100.61,106.47-177.76C556.79,337.15,555.86,332.52,555.55,327.58Z" transform="translate(-7 -7)"/><path class="cls-1" d="M314.22,122.36c-0.62-3.39-1.23-5.55-1.85-8.33-4.94.93-8.95,1.54-13.58,2.47,0.62,3.09,1.23,5.25,1.85,8C305.27,123.6,309,123.29,314.22,122.36Z" transform="translate(-7 -7)"/><path class="cls-1" d="M260.22,135c-1.54-2.78-2.47-4.94-3.7-7.41a105.65,105.65,0,0,0-12.34,5.25c1.23,2.78,2.16,4.94,3.39,7.72C252.19,138.41,255.9,136.87,260.22,135Z" transform="translate(-7 -7)"/><path class="cls-1" d="M245.4,190.56c4.94,8.95,9.88,17.28,15.12,26.23,2.16-1.23,3.7-2.16,5.86-3.39-5.25-8.95-10.18-17.59-15.43-26.54C248.8,188.09,247.25,189.33,245.4,190.56Z" transform="translate(-7 -7)"/><path class="cls-1" d="M286.14,127c-0.62-3.09-1.23-5.25-1.85-8-4.32,1.23-8.33,2.16-14.2,4,1.23,3.09,2.16,5.25,3.09,7.72C278.11,129.15,281.82,128.22,286.14,127Z" transform="translate(-7 -7)"/><path class="cls-1" d="M156.52,241.79c18.21,10.49,35.49,20.68,53.7,31.17,2.78-5.25,5.25-9.57,7.72-14.2-18.21-10.8-35.49-20.68-53.39-31.17C161.77,232.53,159.3,236.85,156.52,241.79Z" transform="translate(-7 -7)"/><path class="cls-1" d="M234.91,146.43c-1.54-2.78-2.78-4.63-4.32-7.1-4.63,2.47-8,4.63-12,7.1,1.85,2.78,3.09,4.63,4.63,7.1C227.19,151.06,230.9,148.9,234.91,146.43Z" transform="translate(-7 -7)"/><path class="cls-1" d="M210.84,161.55c-1.23-2.16-2.78-4.32-4.32-7.1-4,3.09-7.41,5.55-11.73,8.64,2.16,2.47,3.7,4.32,5.55,6.48C204,166.8,206.83,164.64,210.84,161.55Z" transform="translate(-7 -7)"/><path class="cls-1" d="M439.82,330.05c-2.47-40.43-20.68-70.67-54.62-91.66,2.78-12.65,5.25-25,7.72-37-0.62-.31-0.93-0.31-1.54-0.62-6.48,10.18-13,20.37-20.06,31.17-35.18-12.34-67.89-9.57-98.45,10.8-30.55,20.68-46,50-48.14,87.64H190.78c0.31,70.36,60.8,142.88,149.06,139.8,42-1.54,76.84-18.83,104.31-50.61,21.6-25.31,33.33-54.93,34.26-89.5H439.82Zm-69.44-67c-4,18.82-8.33,38-12.65,57.09-1.54,7.1-3.09,14.5-4.63,21.6a10.68,10.68,0,0,1-6.17,8.64c-5.86,3.09-11.42,6.48-18.52,8.33,13.27-32.09,26.85-64.5,40.43-96.59C369.46,262.47,369.77,262.78,370.39,263.09Zm-136.1,66.35c1.54-31.79,14.5-57.09,39.5-75.92,27.77-20.37,58.64-24.07,92.58-13.89-8.95,14.2-17,27.47-25.31,40.12-1.23,1.85-4.32,2.78-6.48,3.09-5.25.93-10.8,0.93-16,2.47-19.13,5.55-32.71,17.59-40.43,36.11-0.93,2.47-1.85,5.25-3.09,8H234.29Zm41,49.38c38.27,21,76.53,20.68,115.73-1.23C359.9,422.33,305.58,422.63,275.34,378.81Zm114.3-49.38c-1.23-2.78-2.16-5.55-3.09-8a62.68,62.68,0,0,0-14.68-21.73l11.52-51.2q3.78,2.32,7.48,5c25,18.82,38,44.13,39.5,75.92H389.64Z" transform="translate(-7 -7)"/></svg>