<?xml version="1.0" encoding="utf-8"?>
<!-- Generator: Adobe Illustrator 19.2.1, SVG Export Plug-In . SVG Version: 6.00 Build 0)  -->
<svg version="1.1" id="Layer_1" xmlns="http://www.w3.org/2000/svg" xmlns:xlink="http://www.w3.org/1999/xlink" x="0px" y="0px"
	 viewBox="0 0 331.2 128" style="enable-background:new 0 0 331.2 128;" xml:space="preserve">
<style type="text/css">
	.st0{fill:#FFFFFF;}
</style>
<title>magazine</title>
<path class="st0" d="M117.3,11.4c0,0.9-0.2,1.8-0.6,2.6c-0.4,0.9-0.9,1.7-1.3,2.6c-1.1,1.7-2.3,3.6-3.5,5.7s-3.2,4.8-5.8,8.2
	c0.2,4.3,0.4,8.6,0.6,13s0.6,8.6,1,12.8s0.7,7.9,1.2,11.4c0.4,3,1,6,1.6,9c0.4,2,0.8,4.1,1.2,6.3c0.4,2,0.5,4,0.6,6
	c0,1-0.2,2-0.5,2.9c-0.3,1-0.7,1.9-1.2,2.8c-0.5,0.7-1.1,1.4-1.7,2.1c-0.6,0.5-1.4,0.8-2.2,0.8c-1,0-1.9-0.6-2.8-1.9
	c-0.9-1.6-1.6-3.3-2.1-5.1c-0.6-2.3-1.1-4.7-1.4-7.1c-0.4-2.6-0.7-5.2-1-7.9s-0.4-5.1-0.5-7.5c-0.1-2.4-0.1-4.4-0.1-6
	c0-4,0.3-7.9,0.8-11.9c0.5-4.2,0.8-8.3,1-12c-1.9,2.7-3.7,5.5-5.1,8.5c-1.9,3.6-3.8,7.5-6,11.7s-4.4,8.4-6.7,12.8
	c-2.2,4.1-4.6,8-7.3,11.8c-2.2,3.2-4.8,6.1-7.8,8.6c-2.7,2.2-5.4,3.3-8.1,3.3c-1.4,0-2.8-0.3-4.1-1c-1.3-0.6-2.4-1.4-3.5-2.3
	c-1.1-1-2.1-2-3-3.2c-1-1.2-1.8-2.3-2.6-3.4c-2.9-3.9-5.5-7.9-7.8-12.1c-2.3-4.1-4.5-8.3-6.4-12.6C32,62.9,32,65.3,32,67.7
	c0.1,1.5,0.1,2.9,0.1,4.1c0,3.6-0.3,7.2-0.7,10.8s-1.7,7-3.4,10.2c-1.1,2.2-3.3,3.5-5.7,3.4c-0.4,0-0.9-0.1-1.5-0.1
	c-0.6-0.1-1.1-0.2-1.6-0.5c-0.5-0.2-1-0.5-1.3-0.9c-0.4-0.3-0.6-0.8-0.6-1.3c0.2-1.4,0.4-2.8,0.7-4.2c0.4-1.3,0.7-2.6,1.1-3.9
	c0.8-2.3,1.5-4.9,2.2-7.5c0.7-2.6,1.3-5.5,1.8-8.3c0.5-2.8,1-5.6,1.5-8.5c0.5-2.9,0.7-5.6,1-8.3c0-0.5,0-1.1,0.1-1.6
	c0.1-0.6,0.2-1.2,0.5-1.6c-0.8-2.5-2-4.9-3.4-7.2c-1.6-2.5-3.2-4.9-4.9-7.1C16,33,14.5,31,13.3,29.4c-1.3-1.6-2-2.8-2.1-3.3
	c-0.1-0.3,0-0.5,0.3-0.5c0.3-0.1,0.6-0.1,1,0c0.4,0.1,0.7,0.2,1.1,0.3c0.2,0.1,0.4,0.2,0.6,0.2c3.1,2,5.9,4.5,8.4,7.3
	c2.6,3.1,5,6.3,7.1,9.7c2.3,3.6,4.5,7.6,6.8,12c2.3,4.4,4.8,9.2,7.6,14.3v-0.1c0.8,1.4,1.7,3,2.8,4.9s2.2,3.7,3.4,5.4
	c1.2,1.6,2.4,3,3.9,4.3c1.1,1.1,2.5,1.7,4.1,1.7c1.4-0.1,3.1-1.3,5-3.5c2.2-2.8,4.2-5.6,6-8.6c2.1-3.4,4.2-7.3,6.4-11.3
	s4.2-7.9,6.1-11.7c0.8-1.7,2-3.9,3.5-6.6s3.2-5.5,5-8.5s3.9-6,6-9c2-2.9,4.2-5.6,6.6-8.2c2-2.2,4.3-4.2,6.8-6c1.7-1.4,4-2.3,6.3-2.3
	c0.7-0.1,1.4,0.5,1.4,1.3C117.4,11.3,117.3,11.4,117.3,11.4z M240.3,61.1c0.2,1.4,0.2,2.9,0,4.3c-0.3,1.6-0.9,3.1-1.7,4.5
	c-1,1.6-2.1,3.2-3.2,4.7c-1.2,1.5-2.5,3-3.9,4.3c-1.2,1.2-2.4,2.2-3.7,3.2c0.8,0.4,1.6,0.8,2.4,1.3c0.8,0.5,1.5,1,2.2,1.4
	c1.4-0.4,2.8-0.6,4.2-0.6c0.6-0.1,1.2,0.2,1.6,0.5c0.7,0.6,0.8,1.6,0.2,2.3c0,0.1-0.1,0.1-0.1,0.1c-0.4,0.4-0.8,0.6-1.4,0.5
	c-0.3,0-0.5,0-0.8,0.1c-0.2,0.1-0.5,0.1-0.7,0.1c1.6,2,2.7,4.4,3,6.9c0.3,2.5,0.2,5-0.5,7.5c-0.7,2.5-1.8,4.8-3.3,6.9
	c-1.4,2.1-3.2,4-5.2,5.5c-1.9,1.4-4,2.5-6.3,3c-2.2,0.5-4.6,0.4-6.7-0.4s-3.3-2.4-3.6-5c-0.3-2.9,0.1-5.7,1.2-8.4
	c1.2-3.3,2.9-6.4,5-9.2c2.1-3,4.8-5.5,7.8-7.4c-1-1-2.5-1.7-4.5-2.1c-1.3-0.2-2.1-0.5-2.6-1c-0.5-0.5-0.7-1.1-0.6-1.7
	c0.1-0.7,0.4-1.5,0.7-2.2c0.5-0.8,1.1-1.6,1.7-2.3c0.7-0.8,1.7-2.1,3.1-3.9c1.3-1.9,2.6-3.7,3.9-5.6c1.1-1.6,2.1-3.4,3-5.2
	c0.7-1.5,0.8-2.4,0.2-2.7c-0.6-0.3-1.7,0.1-3.2,1.3c-1.6,1.3-3.2,2.8-4.6,4.5c-1.6,1.8-3.1,3.7-4.4,5.7c-0.1,0.1-0.1,0.2-0.2,0.3
	c-0.3,1.2-0.7,2.5-1.2,3.9c-0.5,1.5-1.2,3.2-1.9,4.9c-0.7,1.6-1.5,3.1-2.6,4.5c-0.9,1.2-2,2.2-3.3,3c-1.2,0.7-2.6,0.8-3.9,0.5
	c-2.2-0.5-4-2.1-4.9-4.1c-0.6,1.8-1.5,3.5-2.6,5.1c-1.1,1.5-2.5,2.6-4.2,3.3c-1.4,0.5-2.9,0.6-4.3,0.4c-2.3-0.6-4.2-2.1-5.4-4.2
	c-1.4-2.3-2.3-4.9-2.7-7.6c-0.1-0.5-0.2-0.9-0.2-1.4c-0.2,0.3-0.3,0.5-0.5,0.7c-1.9,2.9-4,5.6-6.5,7.9c-0.2,1.3-0.4,2.5-0.6,3.8
	c-0.3,1.3-0.6,2.6-1,3.9c-1.3,3.9-3,6.8-5.3,8.6c-2,1.7-4.4,2.8-7,3.3c-2.2,0.4-4.6,0.1-6.7-0.7c-2.1-0.8-3.4-2-4.1-3.5
	c-1.2-2.5-1.3-4.7-0.4-6.6c1-2,2.4-3.7,4.3-4.9c2-1.3,4.1-2.4,6.4-3.1c2-0.6,4-1.1,6.1-1.3l0.4-3.2c-0.7,0.9-1.5,1.6-2.5,2.2
	c-1.2,0.7-2.6,1-4,1c-2.9,0-5.1-0.8-6.8-2.4c-1.4-1.4-2.4-3.1-3-4.9V81c-0.7,1.6-1.5,3.1-2.6,4.5c-0.9,1.2-2,2.2-3.3,3
	c-1.2,0.7-2.6,0.8-3.9,0.5c-2.2-0.5-4-2.1-4.9-4.1c-0.6,1.8-1.5,3.5-2.6,5.1c-1.1,1.5-2.5,2.6-4.2,3.3c-1.4,0.5-2.9,0.6-4.3,0.4
	c-2.3-0.6-4.2-2.1-5.4-4.2c-1.4-2.3-2.3-4.9-2.7-7.6c-0.5-3-0.5-6-0.1-9c0.3-2.9,1.1-5.8,2.4-8.4c1.1-2.3,2.8-4.4,4.9-5.9
	c2-1.4,4.5-1.9,7.4-1.3c1.1,0.2,2.1,0.7,2.9,1.5c0.8,0.8,1.5,1.6,2.1,2.6c0.6-0.7,1.4-1.1,2.3-1.2s1.9,0.1,2.7,0.4
	c0.8,0.4,1.6,0.9,2.1,1.6c0.5,0.8,0.7,1.7,0.6,2.6c-0.3,1.4-0.6,3.2-0.9,5.2c-0.3,2.1-0.4,4.1-0.5,6.1c-0.1,1.7,0,3.3,0.2,5
	c0.2,1.4,0.6,2.1,1.2,2.1c0.5,0,1-0.6,1.7-1.8c0.7-1.2,1.3-2.6,2-4.3c0.7-1.6,1.3-3.3,1.8-4.9c0.4-1.2,0.8-2.5,1.1-3.8
	c0-0.1,0.1-0.2,0.1-0.2c0.4-1.6,0.9-3.2,1.6-4.7c1-2.3,2.5-4.4,4.3-6.1c1.7-1.5,3.9-2.4,6.2-2.4c1.5,0.1,2.9,0.5,4.1,1.4
	c1.5,1,2.6,2.4,3.4,4c0.7-0.2,1.4-0.2,2.2-0.2s1.4,0.2,2.1,0.5c0.6,0.3,1.2,0.7,1.6,1.3c0.4,0.6,0.5,1.4,0.5,2.2
	c-0.4,3.8-0.6,7.2-0.7,10.1c-0.1,2.9-0.2,5.6-0.2,7.9c2.9-3.6,5.4-8.2,7.4-13.8c0.1-0.2,0.1-0.4,0.2-0.5c0.4-1.2,0.8-2.4,1.4-3.5
	c1.1-2.3,2.8-4.4,4.9-5.9c2-1.4,4.5-1.9,7.4-1.3c1.1,0.2,2.1,0.7,2.9,1.5c0.8,0.8,1.5,1.6,2.1,2.6c0.6-0.7,1.4-1.1,2.3-1.2
	s1.9,0.1,2.7,0.4c0.8,0.4,1.6,0.9,2.1,1.6c0.5,0.8,0.7,1.7,0.6,2.6c-0.3,1.4-0.6,3.2-0.9,5.2c-0.3,2.1-0.4,4.1-0.5,6.1
	c-0.1,1.7,0,3.3,0.2,5c0.2,1.4,0.6,2.1,1.2,2.1c0.5,0,1-0.6,1.7-1.8c0.4-0.6,0.7-1.4,1.1-2.1c-0.4-0.6-0.5-1.5-0.3-3
	c0.2-1.4,0.8-3.3,2-5.5c1.3-2.3,2.7-4.4,4.4-6.4c1.7-2.1,3.7-4,5.9-5.7c1.9-1.6,4.2-2.7,6.6-3.3c1.5-0.4,3.2-0.4,4.7,0.1
	c1.2,0.4,2.3,1.2,3,2.2C239.6,58.5,240.1,59.7,240.3,61.1z M134.8,68.7c-0.2-1.3-0.4-2.6-0.9-3.9c-0.4-1.3-1.1-2-1.9-2.1
	c-1.3-0.2-2.5,0.3-3.3,1.3c-1.1,1.3-1.9,2.9-2.4,4.5c-0.6,2-1.1,4.1-1.3,6.1c-0.3,2.1-0.4,4.2-0.2,6.3c0.1,1.7,0.4,3.4,1,5.1
	c0.5,1.4,1.3,2.2,2.3,2.3s2-0.4,2.9-1.6c1-1.5,1.8-3.1,2.3-4.8c0.7-2.1,1.2-4.3,1.5-6.5C135,73.3,135.1,71,134.8,68.7z M166.4,92.5
	c-2.2,0.4-4.3,1.2-6.3,2.4c-1.9,1.1-3.1,3-3.4,5.1c-0.2,1.3,0,2.2,0.6,2.8s1.6,0.8,2.5,0.5c1-0.3,2.1-1.2,3.3-2.6
	c1.2-1.5,2.1-3.6,2.9-6.5L166.4,92.5z M168.1,66.5c-0.2-1.6-0.5-3.2-1.2-4.6c-0.6-1.3-1.4-2-2.3-2.2s-1.9,0.3-2.8,1.5
	c-0.9,1.3-1.6,2.8-2.1,4.3c-1.2,3.7-1.6,7.6-1.3,11.5c0.2,1.6,0.6,3.1,1.3,4.5c0.5,1.1,1.6,1.8,2.9,1.8c0.6,0.1,1.2-0.2,1.6-0.5
	s0.8-0.8,1.1-1.3c0.3-0.5,0.5-1.1,0.7-1.7c0.2-0.6,0.4-1.1,0.7-1.6c0.7-1.9,1.2-3.8,1.4-5.8C168.3,70.4,168.3,68.5,168.1,66.5
	L168.1,66.5z M200.2,68.7c-0.2-1.3-0.4-2.6-0.9-3.9c-0.4-1.3-1.1-2-1.9-2.1c-1.3-0.2-2.5,0.3-3.3,1.3c-1.1,1.3-1.9,2.9-2.4,4.5
	c-0.6,2-1.1,4.1-1.3,6.1c-0.3,2.1-0.4,4.2-0.2,6.3c0.1,1.7,0.4,3.4,1,5.1c0.5,1.4,1.3,2.2,2.3,2.3c1,0.2,2-0.4,2.9-1.6
	c1-1.5,1.8-3.1,2.3-4.8c0.7-2.1,1.2-4.3,1.5-6.5C200.4,73.3,200.4,71,200.2,68.7z M222.9,96.6c-1.5,2.3-2.9,4.7-3.9,7.3
	c-0.8,1.9-1.3,4-1.3,6c0,1.7,0.5,2.5,1.6,2.5c1.3,0,2.7-0.8,4.1-2.3c1.5-1.7,2.7-3.6,3.6-5.7c1-2.3,1.7-4.7,2.2-7.2
	c0.4-2.3,0.3-4.6-0.3-6.8C226.5,92,224.4,94.2,222.9,96.6z M251.9,55.2c1-0.2,2-0.4,2.9-0.8c0.9-0.4,1.7-0.8,2.4-1.5
	c0.6-0.5,1.2-1.2,1.6-2c0.4-0.7,0.5-1.6,0.3-2.4c-0.2-1.6-1.3-2.8-3-3.5c-2-0.7-4-1-6.1-0.5c-2,0.3-3.9,1.1-5.5,2.4
	c-1.3,1.1-2,2.8-1.6,4.4c0.2,1.6,1.3,2.8,3.2,3.4C248,55.2,250,55.4,251.9,55.2z M319.9,69.1c-0.2,0.5-0.4,1.4-0.8,2.8
	c-0.5,1.6-1,3.1-1.7,4.6c-0.8,1.8-1.7,3.6-2.7,5.3c-1.1,1.9-2.3,3.5-3.8,5s-3.2,2.8-5.1,3.8c-2,1-4.1,1.5-6.4,1.5
	c-2.8,0-5-1-6.6-2.9c-1.6-2.2-2.7-4.7-3.2-7.4c-0.2-1-0.3-2-0.4-2.9c-0.1,0.1-0.1,0.1-0.1,0.2c-1.1,1.7-2.4,3.3-3.9,4.7
	c-1.4,1.4-2.8,2.1-4.1,2.1c-2.3,0-3.9-0.6-4.9-1.8c-1-1.2-1.6-2.6-1.9-4.1s-0.4-3-0.4-4.5c0.1-1.4,0.1-2.3-0.1-2.8
	c-0.4,0.2-0.8,0.7-1.2,1.6c-0.5,1.1-0.9,2.2-1.2,3.3c-0.4,1.3-0.7,2.5-1.1,3.9c-0.3,1.1-0.5,2.3-0.6,3.4c-0.2,1-0.7,1.8-1.6,2.3
	c-0.9,0.5-1.9,0.7-2.9,0.7s-2-0.3-2.9-0.8c-0.9-0.5-1.3-1.6-1.2-2.6c0.1-1.2,0.1-2.6,0-4.2c-0.1,0.2-0.1,0.3-0.2,0.4
	c-0.7,1.6-1.5,3.1-2.6,4.5c-0.8,1.2-2,2.2-3.2,3c-1.2,0.7-2.5,0.8-3.9,0.5c-2.1-0.6-3.6-1.7-4.5-3.4c-1-1.8-1.5-3.8-1.6-5.8
	c-0.2-2.4-0.2-4.8,0.1-7.3c0.2-2.6,0.3-5.1,0.3-7.7c0-1.9,0.5-3.2,1.5-3.9c1-0.7,2.1-1,3.2-0.8s2.2,0.7,3,1.5c0.8,0.8,1.2,2,1,3.2
	c-0.3,1.4-0.6,3.2-0.9,5.2S253.1,74,253,76c-0.1,1.7,0,3.3,0.2,5c0.2,1.4,0.6,2.1,1.3,2.1c0.5,0,1-0.6,1.7-1.8
	c0.7-1.4,1.4-2.8,1.9-4.3c0.6-1.6,1.2-3.3,1.7-4.9c0.4-1.2,0.8-2.5,1.1-3.8l0,0V68c0-1.7,0.2-3.5,0.5-5.2c0.2-1.4,0.8-2.6,2-3.5
	c1-0.7,2.1-1.2,3.3-1.3c1.1-0.1,2.1,0.2,3,0.7c0.8,0.5,1.2,1.4,1.1,2.6c-0.2,1.1-0.4,2.3-0.6,3.7c-0.3,1.4-0.5,2.8-0.7,4.1
	c-0.2,1.3-0.4,2.6-0.5,3.9c-0.1,1-0.2,2-0.1,3c0.6-2,1.3-3.9,2.2-5.7c0.7-1.5,1.5-2.9,2.5-4.3c0.7-0.8,1.6-1.4,2.6-1.8
	c1-0.4,2.1-0.6,3.2-0.6c0.9,0,1.7,0.3,2.4,0.9c0.6,0.5,0.7,1.3,0.4,2.3c-0.3,1.1-0.5,2.2-0.6,3.3c-0.2,1.5-0.3,3-0.3,4.5
	c0,1.3,0.1,2.6,0.2,4c0.2,1.1,0.4,1.7,0.8,1.7c0.5,0,1.1-0.4,1.9-1.3c0.8-1,1.6-2,2.3-3.1c0.8-1.3,1.5-2.5,2.2-3.9
	c0.5-1.1,1-2.2,1.4-3.3c0.4-2,0.9-3.9,1.5-5.8c0.9-2.6,2.2-5.1,4-7.4c1.6-2,3.4-2.9,5.3-2.9c1.9,0,3.6,0.7,5,1.9
	c1.4,1.3,2.5,2.8,3.3,4.5c0.8,1.6,1.2,3.4,1.3,5.2c0.1,1.8-0.2,3.2-1,4.2c-0.6,0.8-1.4,1.6-2.3,2.1c-1,0.5-2,1-3,1.3
	c-1.1,0.4-2.2,0.6-3.3,0.7c-1.1,0.2-2.1,0.3-3,0.4c-0.2,1.6-0.4,3.2-0.4,4.8c-0.1,1.4,0.1,2.8,0.2,4.2c0.2,1.1,0.5,2.2,1,3.2
	c0.4,0.8,1,1.4,1.8,1.6c1.1,0.3,2.3,0.1,3.3-0.5c1.3-0.7,2.4-1.7,3.4-2.8c1.2-1.3,2.2-2.6,3.2-4.1c1-1.5,1.9-3.1,2.7-4.5
	s1.4-2.8,2-4c0.4-0.8,0.7-1.7,1.1-2.6c0.2-0.6,0.5-1.1,1.1-1.4c0.5-0.2,1-0.3,1.5-0.2c0.5,0.1,0.9,0.3,1.2,0.7
	C319.9,67.8,320,68.4,319.9,69.1L319.9,69.1z M298.7,67.3c0.9,0,1.7-0.1,2.6-0.3c0.7-0.1,1.4-0.6,1.9-1.2c0.4-0.6,0.6-1.3,0.6-2.1
	c0.1-0.9,0.1-1.9-0.1-2.8c-0.1-0.8-0.3-1.6-0.6-2.3c-0.3-0.6-0.6-0.8-0.9-0.7c-0.5,0.2-1.1,1.2-1.7,3
	C299.7,63.1,299.1,65.2,298.7,67.3z"/>
</svg>
