<?xml version="1.0" encoding="utf-8"?>
<!-- Generator: Adobe Illustrator 19.0.0, SVG Export Plug-In . SVG Version: 6.00 Build 0)  -->
<svg version="1.1" id="Layer_1" xmlns="http://www.w3.org/2000/svg" xmlns:xlink="http://www.w3.org/1999/xlink" x="0px" y="0px"
	 viewBox="0 0 4024.9 440.8" style="enable-background:new 0 0 4024.9 440.8;" xml:space="preserve">
<style type="text/css">
	.st0{fill:#FFFFFF;}
</style>
<g id="NcBFr5_1_">
	<g id="XMLID_2_">
		<path id="XMLID_43_" class="st0" d="M1993.9,418.9c-11.1-1.9-22.4-3.2-33.4-5.9c-37.8-9.1-69.9-28.2-96.5-56.3
			c-2.6-2.8-5.4-4.4-9.3-5.1c-107.2-18.9-214.4-37.9-321.6-56.9c-12.6-2.2-25.2-4.5-38.9-7c2.7,7.3,5,13.9,7.8,21.4
			c-354.7-58.9-708.7-117.7-1062.8-176.5c0-0.3,0.1-0.6,0.1-0.9c303.3,23.1,606.6,46.3,910,69.4c0.2-0.4,0.4-0.7,0.6-1.1
			c-6.7-5.8-13.3-11.5-20-17.3c0.1-0.4,0.2-0.8,0.4-1.2c159.6,15.9,319.2,31.9,478.6,47.8c1.4-17.2,2.9-34.1,4.3-51.7
			c-217.3-17.9-435.2-35.8-653-53.7c-0.1,0.3-0.2,0.6-0.4,0.8c11.8,7.2,23.7,14.5,35.5,21.7c-0.1,0.3-0.2,0.6-0.3,1
			C807,109.3,419,70.9,31,32.6c0-0.3,0-0.6,0-0.8c322.2,9.1,644.5,18.3,966.7,27.4c0.1-0.4,0.3-0.7,0.4-1.1
			c-7.7-5-15.4-10-24.1-15.7c2.4-0.1,3.6-0.3,4.7-0.3c84.8,2.6,169.6,5.3,254.3,7.9c107.4,3.3,214.9,6.7,322.3,10
			c85.3,2.7,170.6,5.3,255.8,8c20.8,0.6,41.6,1.4,62.5,1.8c2.7,0.1,6-1,8-2.7C1955,6.9,2060,6.6,2133.3,66.8
			c3.5,2.9,6.9,3.8,11.3,3.6c47-1.6,93.9-3,140.9-4.4c70.8-2.2,141.6-4.4,212.4-6.6c46.8-1.5,93.6-2.9,140.4-4.3
			c71-2.2,141.9-4.5,212.9-6.7c58.3-1.8,116.6-3.6,174.9-5.3c7.8-0.2,15.6,0,24,0c-7.9,5.1-15.6,10.1-23.3,15.1
			c0.1,0.4,0.1,0.8,0.2,1.2c322.3-9.1,644.6-18.3,966.9-27.4c0,0.3,0,0.6,0,0.8c-388.1,38.3-776.1,76.7-1164.2,115
			c-0.2-0.3-0.3-0.6-0.5-0.8c11.9-7.3,23.8-14.5,35.8-21.8c-0.1-0.3-0.3-0.6-0.4-0.8c-220.7,18.1-441.5,36.3-661.7,54.4
			c1.4,17.4,2.7,34.4,4.1,51.9c162.2-16.2,324.9-32.5,487.6-48.7c0.2,0.3,0.3,0.6,0.5,0.9c-6.7,5.8-13.4,11.6-20.1,17.5
			c0.1,0.4,0.2,0.8,0.3,1.2c303.4-23.1,606.8-46.3,910.2-69.4c0,0.3,0.1,0.6,0.1,0.9c-354,58.8-707.9,117.6-1062.8,176.5
			c2.6-7.3,5-13.9,7.7-21.3c-10.8,1.9-20.9,3.6-31,5.4c-65.4,11.6-130.8,23.2-196.2,34.7c-48.7,8.6-97.4,17.2-146,26
			c-1.9,0.3-4,1.6-5.4,3c-33,34.2-73.1,54.4-120.3,60.5c-2.9,0.4-5.8,0.9-8.7,1.3C2013.2,418.9,2003.5,418.9,1993.9,418.9z
			 M2008.1,381.7c88.9-0.1,160.8-72.4,160.8-161.5c0-89-72.5-161.4-161.3-161c-88.7,0.3-160.6,72.5-160.6,161.3
			C1847,309.3,1919.4,381.8,2008.1,381.7z"/>
		<path id="XMLID_40_" class="st0" d="M1866.2,220.6c-0.3-77.9,63.2-141.6,141.4-142c77.9-0.4,141.8,63.3,142,141.4
			c0.2,78.3-63.4,142.1-141.7,142.2C1930,362.3,1866.5,298.9,1866.2,220.6z M2137.6,220.2c-0.3-71.9-58.6-129.8-130.3-129.5
			c-71.3,0.3-128.9,58.4-128.8,129.8c0.2,72,58.3,129.9,130.1,129.5C2079.9,349.7,2137.9,291.3,2137.6,220.2z"/>
		<path id="XMLID_34_" class="st0" d="M1931.4,219.2c5.9,0,11.8,0,18.1,0c1.2-20.1,9.6-36.2,26-47.2c16.5-11.1,34.5-12.8,53.7-6
			c3.6-5.6,7.2-11.3,10.9-17c0.3,0.1,0.6,0.2,0.9,0.3c-1.2,5.7-2.5,11.4-3.5,17.2c-0.2,1.4,0.5,3.6,1.5,4.3
			c16.5,11.2,25.8,26.4,27.1,46.4c0,0.5,0.3,0.9,0.7,1.8c6.5,0,13.1,0,20.6,0c-1.1,25.6-11.5,45.8-31.4,60.9
			c-25.1,19-58.9,20.7-86,5C1945.2,270.6,1930.5,242.7,1931.4,219.2z M1955.1,219.1c5.8,0,11.6-0.2,17.4,0.1
			c3.3,0.1,4.9-0.8,6.1-4.1c4.8-12.5,14.2-19.7,27.4-20.9c4.7-0.4,7.1-2,9.2-5.8c3.4-6,7.2-11.7,11-17.6
			C1992.1,158.4,1957,182.4,1955.1,219.1z M2035.4,176c-1.7,8-3.5,15.8-5.1,23.8c-0.1,0.7,0.2,1.6,0.6,2.2
			c3.8,5.5,7.7,10.9,11.9,16.8c5.3,0,11.5,0,17.8,0C2061.6,203.2,2048.7,181.1,2035.4,176z M2040.4,244.7
			c-10.8,6.1-20.8,9.3-31.9,9.4c-11.2,0.1-21.4-3.2-31.8-8.8C1990.8,267.2,2020.8,272.2,2040.4,244.7z M2028.7,183
			c-0.3,0-0.6-0.1-0.9-0.1c-7.3,17.5-14.6,35-22.4,53.6c4.4-2.6,7.8-4.4,11-6.5c1.1-0.7,2.1-2.1,2.4-3.4
			C2022.3,212.1,2025.5,197.5,2028.7,183z"/>
		<path id="XMLID_33_" class="st0" d="M2017.8,339.9c-68,0-118-42.7-127.7-101.9c-0.9-5.2-1.1-10.6-1.1-15.9c0-1.6,1.6-4.3,2.9-4.6
			c3.3-0.7,2.8,2.3,3,4.3c4.3,48.8,28.6,83.7,74.2,101.6c67.7,26.5,142.7-18.5,152.9-90.7c0.5-3.3,0.7-6.6,1-9.9
			c0.3-2.4,0-5.8,3.5-5.3c1.3,0.2,3,3.5,3,5.4c-0.6,18.9-4.9,37-14.3,53.5C2092,317.6,2056.3,338.2,2017.8,339.9z"/>
		<path id="XMLID_32_" class="st0" d="M1901.5,219.4c3.2,0,5.4,0,8,0c1.7,31.1,14.2,56.7,38.5,76c18.4,14.6,39.6,21.6,63.1,21.1
			c52.4-0.9,95.6-42.2,98.1-97c2.3,0,4.7,0,7.7,0c-2.2,36.6-17.4,66.1-47.9,86.2c-36.2,23.8-74.5,25.5-112.4,4.3
			C1921.7,290.6,1904.3,259.6,1901.5,219.4z"/>
		<path id="XMLID_31_" class="st0" d="M1916.1,219.3c3.1,0,5.3,0,7.9,0c1.9,29.1,14.2,52.3,38.4,68.8c16.6,11.3,35.2,15.7,55,13.8
			c38.9-3.7,74.3-34.7,77-82.4c2.2,0,4.4,0,7.6,0c-1.3,29.2-12.9,53.5-36.3,70.9c-31.6,23.6-66,26.5-100.8,7.9
			C1934.1,281.7,1918.7,254.6,1916.1,219.3z"/>
		<path id="XMLID_30_" class="st0" d="M2012.2,146.8c-2.9,0-5.7,0-8.9,0c0-10.8,0-21.5,0-32.6c2.9,0,5.6,0,8.9,0
			C2012.2,124.9,2012.2,135.6,2012.2,146.8z"/>
		<path id="XMLID_29_" class="st0" d="M2074.1,188.4c-1.6-2.7-2.9-5.1-4.5-7.9c9.9-5.8,19.6-11.4,29.6-17.2c1.6,2.7,2.9,5,4.5,7.9
			C2093.8,176.9,2084.1,182.6,2074.1,188.4z"/>
		<path id="XMLID_28_" class="st0" d="M1912.6,171.5c1.6-2.8,2.9-5.1,4.5-7.9c9.8,5.7,19.3,11.2,29.1,17c-1.5,2.6-2.8,5-4.4,8
			C1932,182.8,1922.5,177.3,1912.6,171.5z"/>
		<path id="XMLID_27_" class="st0" d="M2047,157.7c-3.6-1.9-3.7-1.9-1.7-5.3c7.1-12.2,5.9-11.8,9.8-8.7
			C2052.3,148.3,2049.7,153,2047,157.7z"/>
		<path id="XMLID_26_" class="st0" d="M1968.8,157.7c-2.7-4.7-5.4-9.4-8.1-14.1c0.3-0.5,0.5-0.9,0.8-1.4c1.3,0.6,3.3,0.8,3.7,1.7
			c2,4.4,6.7,8,6.1,13.3C1970.5,157.4,1969.6,157.5,1968.8,157.7z"/>
		<path id="XMLID_25_" class="st0" d="M2088.7,136.3c0.3-0.3,1.2-1.3,2.4-2.5c2,1.9,3.8,3.5,6,5.6c-1.4,1.3-2.3,2.2-3.7,3.6
			C2091.7,140.5,2090.3,138.6,2088.7,136.3z"/>
		<path id="XMLID_24_" class="st0" d="M2101.6,144.9c1.9,2.5,3.3,4.5,4.9,6.5c-1.3,1-2.3,1.7-3.6,2.7c-1.5-1.9-2.9-3.6-4.6-5.7
			C2099.2,147.4,2100.2,146.4,2101.6,144.9z"/>
		<path id="XMLID_23_" class="st0" d="M2116.8,180.5c-1.1-2.6-1.8-4.4-2.7-6.6c1.2-0.7,2.4-1.3,4.1-2.3c1.1,2.6,2,4.7,3.1,7.4
			C2119.6,179.5,2118.3,180,2116.8,180.5z"/>
		<path id="XMLID_22_" class="st0" d="M1921.8,139.4c2.2-2.1,3.8-3.7,6-5.9c1.1,1.2,2.1,2.2,3.3,3.6c-2.1,1.9-3.8,3.4-5.7,5.2
			C1924.4,141.6,1923.4,140.7,1921.8,139.4z"/>
		<path id="XMLID_21_" class="st0" d="M1916,154.3c-1.4-1-2.5-1.7-3.9-2.7c1.6-2.1,3-4,4.7-6.2c1.4,1,2.4,1.7,3.7,2.7
			C1919,150.2,1917.7,152,1916,154.3z"/>
		<path id="XMLID_20_" class="st0" d="M2106.8,160.3c1.6-1,2.7-1.6,4.1-2.5c1.3,2.3,2.5,4.2,3.9,6.5c-1.2,0.8-2.4,1.6-3.9,2.7
			C2109.5,164.8,2108.2,162.7,2106.8,160.3z"/>
		<path id="XMLID_19_" class="st0" d="M2079,123.9c2.1,1.7,4,3.1,6.1,4.7c-1,1.3-1.8,2.3-2.9,3.7c-2-1.5-3.9-2.9-6.1-4.5
			C2077.2,126.3,2078,125.2,2079,123.9z"/>
		<path id="XMLID_18_" class="st0" d="M2058.7,112c-0.7,1.6-1.3,2.7-2,4.2c-2.3-0.9-4.4-1.8-6.9-2.8c0.5-1.5,1-2.8,1.6-4.4
			C2053.8,110.1,2055.9,110.9,2058.7,112z"/>
		<path id="XMLID_17_" class="st0" d="M1959.6,112.4c2.7-1.2,4.8-2.1,7.2-3.1c0.7,1.5,1.3,2.7,2.1,4.3c-2.4,0.9-4.5,1.9-6.7,2.2
			C1961.7,115.9,1960.7,113.8,1959.6,112.4z"/>
		<path id="XMLID_16_" class="st0" d="M2126,193.8c-1.8,0.5-3,0.8-4.6,1.2c-0.1-3.2-4.4-6.7,2.2-8.8
			C2124.3,188.7,2125.1,191,2126,193.8z"/>
		<path id="XMLID_15_" class="st0" d="M2042.6,111.6c-2.7-2.4-8.6-0.1-6.2-6.8c2.3,0.5,4.6,1,7.5,1.6
			C2043.5,108,2043.2,109.3,2042.6,111.6z"/>
		<path id="XMLID_14_" class="st0" d="M1976,111.6c-0.6-2.2-0.9-3.4-1.3-5.1c2.6-0.6,5-1.2,7.4-1.8
			C1984.6,111.5,1978.7,109.3,1976,111.6z"/>
		<path id="XMLID_13_" class="st0" d="M2122.7,202.3c1.7-0.2,3-0.3,4.2-0.4c2,6.8,1.8,7.4-3.1,7.7
			C2123.5,207.3,2123.1,205,2122.7,202.3z"/>
		<path id="XMLID_12_" class="st0" d="M1891.2,201.9c1.8,0.2,3.1,0.4,4.3,0.6c0.5,7,0.1,7.5-4.8,6.8
			C1890.8,207.1,1891,204.8,1891.2,201.9z"/>
		<path id="XMLID_11_" class="st0" d="M1900.6,171.9c1.4,0.6,2.5,1.2,4.1,1.9c-1,2.4-1.8,4.5-2.7,6.7
			C1897.1,179.1,1897.1,179.1,1900.6,171.9z"/>
		<path id="XMLID_10_" class="st0" d="M1908.1,167.1c-1.5-0.8-2.6-1.3-4.2-2.2c1.2-2.2,2.4-4.3,3.7-6.7c1.4,0.7,2.6,1.3,4.2,2.2
			C1910.6,162.6,1909.5,164.5,1908.1,167.1z"/>
		<path id="XMLID_9_" class="st0" d="M1989.8,103.2c2.7-0.5,4.9-0.9,7.6-1.3c0.2,1.7,0.3,3,0.6,5
			C1994.9,105.9,1990.4,110.9,1989.8,103.2z"/>
		<path id="XMLID_8_" class="st0" d="M2028.9,103.2c-0.3,1.6-0.6,2.8-0.9,4.4c-2.4-0.3-4.6-0.6-7.2-1c0.1-1.6,0.2-3,0.4-4.7
			C2023.9,102.4,2026.2,102.8,2028.9,103.2z"/>
		<path id="XMLID_7_" class="st0" d="M1891.9,194.3c2.9-2.8,0.4-7.6,5.3-6.9c0.8,0.1,1.1,4.4,1.8,7.5
			C1896.1,194.7,1894.7,194.6,1891.9,194.3z"/>
		<path id="XMLID_6_" class="st0" d="M1942.5,127.7c-2.1,1.7-3.8,3-5.9,4.6c-1-1.1-1.8-2.1-3.1-3.6c2.2-1.7,4.1-3.1,6.1-4.7
			C1940.5,125.2,1941.3,126.2,1942.5,127.7z"/>
		<path id="XMLID_5_" class="st0" d="M2070.3,123.2c-1.1-0.4-1.6-0.5-2-0.7c-1.4-0.8-2.8-1.7-4.6-2.7c0.5-1.3,1-2.5,1.8-4.3
			c2.4,1.4,4.5,2.6,6.8,3.9C2071.5,120.8,2071,121.9,2070.3,123.2z"/>
		<path id="XMLID_4_" class="st0" d="M1948.5,123.1c-0.6-1-1.3-2-2.3-3.5c2.3-1.4,4.3-2.6,6.3-3.8
			C1955.7,120.1,1955.7,120.2,1948.5,123.1z"/>
		<path id="XMLID_3_" class="st0" d="M2005.7,101.5c3.1,0.8,7.8-2.5,7.4,4C2006.1,106.9,2005.5,106.7,2005.7,101.5z"/>
	</g>
</g>
</svg>
