<?xml version="1.0" encoding="utf-8"?>
<!-- Generator: Adobe Illustrator 19.0.0, SVG Export Plug-In . SVG Version: 6.00 Build 0)  -->
<svg version="1.1" id="Layer_1" xmlns="http://www.w3.org/2000/svg" xmlns:xlink="http://www.w3.org/1999/xlink" x="0px" y="0px"
	 viewBox="0 0 1200 309" style="enable-background:new 0 0 1200 309;" xml:space="preserve">
<style type="text/css">
	.st0{fill:#FFFFFF;}
</style>
<g id="XMLID_32_">
	<path id="XMLID_33_" class="st0" d="M491.7,89.1c0,1.3-0.4,2.6-1.1,3.6c-1.5,2.7-6.1,12.8-13.8,30.1c-8.9,19.7-17.4,39.2-25.4,58.3
		c-8.8,20.8-18.6,45.6-29.5,74.6c-1.8,4.7-4.1,11.7-7.3,21.3c-1.2,4.1-2.6,6.2-4.5,6.2c-1.2,0-2.3-1.6-3.4-5
		c-0.9-2.8-1.3-5.2-1.3-6.8c0-6.1,5.7-22.5,17.1-49.5c7.3-16.4,14.5-32.7,21.7-49.1l19-42.9c-6.2,9-13,18.6-20.4,29
		c-21.7,30-46.8,67.8-75.2,113.3c-0.4,0.7-0.9,1.5-1.9,2.6c-0.4,3-1.9,4.7-4.6,4.7c-1.1,0-2.2-0.7-3.5-2.2s-1.9-2.8-1.9-4
		c0-8.4,8.1-35.8,24.2-81.8c2.2-6.2,10.8-28.1,25.7-66c-29,45-55.1,88.4-78.3,130.3c-2.6,4.5-6.1,11.4-10.8,20.5
		c-1.8,3.9-3.4,5.7-5,5.7c-2,0-2.9-3.4-2.9-10.3c0-4.5,3.3-12.8,10-24.7c2.6-4.7,8-13.7,16.4-27.2c6.6-10.6,16.1-25.8,28.5-45.5
		l44-68.8c1.3-1.8,3-4.6,5.2-8.2c0.1-0.7,0.5-1.8,0.9-3.4c0.7-2.2,2.1-3.4,4-3.4c0.1,0.1,0.4,0.1,0.7,0.2c4.1,3.6,6.2,6.7,6.2,9.1
		c0-0.1-9.7,27.6-29.3,82.8c-4.8,13.6-11.7,34-20.8,61.3c11-17.6,28-43.6,51-78.3c8.4-12.3,21.2-30.7,38.3-55.1
		c2.8-4.1,7.5-10.1,13.7-17.7c4.5-4.3,7.7-6.4,10.1-6.4c0.7,0,1.5,0.4,2.5,0.9C491.1,87.8,491.7,88.5,491.7,89.1z"/>
	<path id="XMLID_35_" class="st0" d="M494.5,202.5c0.5,1.5-1.6,6.1-6.2,13.7c-6.8,11.4-10.6,17.8-11.4,19.3c-1.5,3-2.5,6.4-2.6,10.2
		c-0.4,4.9-1.3,7.5-2.9,7.5c-3,0-4.6-3.4-4.8-10.1c-7.2,7.4-13,11-17.4,10.9c-0.4,0-0.8,0-1.1,0c-0.4,0.1-0.8,0-1.6-0.4
		c-0.9-0.4-2.9-1.8-5.9-4.3c-0.7-0.7-1.5-2.1-2.2-4.5c-0.7-2.3-1.1-3.9-0.9-4.7c0.1-1.9,1.2-5.5,3-10.9c3.3-6.8,6.8-12.3,10.7-16.8
		c3.9-4.5,7.9-8,12-10.8c4.7-3.4,9.1-5.2,13.2-5.4c0.1,0,0.2,0,0.4,0c0.2-0.1,0.4-0.2,0.5-0.4c0.7-0.2,1.5,0.1,2.5,1.1
		c0.9,0.9,2,2.9,3.3,5.7c2-2.8,3.5-4.2,4.5-4.3C491,198.2,493.3,199.5,494.5,202.5z M477.4,203.6v-0.1c-1.8,0.1-3.8,1.1-5.7,2.8
		c-7,5.7-12.7,12.2-16.9,19.1c-4,6.4-6.4,12.3-7.3,17.5c-0.1,1.3,0.1,2.5,0.9,3.4c0.2-0.1,0.8-0.4,1.8-0.7c3.4-1.5,8.2-6.2,14.5-14
		c4.2-5.3,6.9-8.9,8.2-10.9c0.7-1.5,1.5-3,2.2-4.7C477.6,209.3,478.3,205.2,477.4,203.6z"/>
	<path id="XMLID_38_" class="st0" d="M513,203.3c0.6,1.6-1.4,6.2-5.9,13.8c-7,12-10.8,18.4-11.3,19.3c-1.5,3-2.5,6.4-2.6,10.2
		c-0.2,4.9-1.3,7.4-3.3,7.4c-3.2,0-4.8-3.5-4.8-10.6c0-3.4,0.6-6.8,1.9-10.6c2.2-6.6,5.5-13.7,9.8-21.6c4.3-7.9,7.4-11.8,9.1-12
		C509.7,199,512.1,200.3,513,203.3z M529.2,178.2c-0.9,1.6-2.6,3.4-4.9,5.4c-2.6,2-4.7,3-6.1,3c-2.5,0-3.6-2.2-3.6-6.8
		c0-4,1.1-7.2,3-9.4c2.8-3,6.1-4.6,9.7-4.6c0.7,0,1.2,0.1,1.6,0.2c1.2,0.5,1.8,2.1,1.9,5C530.8,173.9,530.3,176.2,529.2,178.2z"/>
	<path id="XMLID_41_" class="st0" d="M572.2,230.3c-9,10.9-14.8,17.4-17.4,19.6c-3.9,3.4-8.4,5.2-13.5,5.2c-1.2,0-2.6-1.3-4-4
		c-1.8-3-2.6-6.4-2.6-10.1c0-2.9,2.8-10.2,8.4-21.8c-1.3,1.2-2.6,2.2-3.6,3.2c-1.5,1.2-8.6,7.6-21.2,19.2
		c-7.9,7.2-12.4,10.8-13.5,10.8c-0.4,0-0.6-0.2-0.6-0.8h-0.1c-0.7,0-1.3-1.1-2-3.3c-0.7-2.1-0.9-3.9-0.7-4.9
		c0.7-3.4,4.5-11.1,11.3-23.3c3.5-6.2,6.2-12.2,8.2-17.9c0.9-2.9,2-4.3,3.2-4.3c1.8,0.1,3.5,1.1,5.2,3c1.6,2,2.5,3.5,2.5,4.7
		c0,0.1-1.5,3.3-4.6,9.3c-1.2,2.5-5,9-11.5,19.6c5.3-3.9,13.8-11.4,25.7-22.5c2.1-2,6-5.9,11.5-11.6c3-3.2,5-4.8,6-4.8
		c1.5,0,3,1.2,4.7,3.4c1.5,0.9,2.2,3,2,6.3c0,0.7-1.6,2.8-4.9,6.4c-1.9,2.1-4.9,6.8-9.3,14.1c-3.5,5.9-5.6,10.7-6.3,14.2
		c-0.7,2.8-0.6,4.7,0.4,5.5c0.4,0.4,0.7,0.5,1.2,0.5c4.1,0,11.5-6.8,22.2-20.3c1.1-1.3,2.1-2,3-2c1.4,0,2.1,0.9,2.1,2.7
		C573.9,227.6,573.3,228.9,572.2,230.3z"/>
	<path id="XMLID_43_" class="st0" d="M777.3,89.1c0,1.3-0.4,2.6-1.1,3.6c-1.5,2.7-6.1,12.8-13.8,30.1c-8.9,19.7-17.4,39.2-25.4,58.3
		c-8.8,20.8-18.6,45.6-29.5,74.6c-1.8,4.7-4.1,11.7-7.3,21.3c-1.2,4.1-2.6,6.2-4.5,6.2c-1.2,0-2.3-1.6-3.4-5
		c-0.9-2.8-1.3-5.2-1.3-6.8c0-6.1,5.7-22.5,17.1-49.5c7.3-16.4,14.5-32.7,21.7-49.1l19-42.9c-6.2,9-13,18.6-20.4,29
		c-21.7,30-46.8,67.8-75.2,113.3c-0.4,0.7-0.9,1.5-1.9,2.6c-0.4,3-1.9,4.7-4.6,4.7c-1.1,0-2.2-0.7-3.5-2.2c-1.3-1.5-1.9-2.8-1.9-4
		c0-8.4,8.1-35.8,24.2-81.8c2.2-6.2,10.8-28.1,25.7-66c-29,45-55.1,88.4-78.3,130.3c-2.6,4.5-6.1,11.4-10.8,20.5
		c-1.8,3.9-3.4,5.7-5,5.7c-2,0-2.9-3.4-2.9-10.3c0-4.5,3.3-12.8,10-24.7c2.6-4.7,8-13.7,16.4-27.2c6.6-10.6,16.1-25.8,28.5-45.5
		l44-68.8c1.3-1.8,3-4.6,5.2-8.2c0.1-0.7,0.5-1.8,0.9-3.4c0.7-2.2,2.1-3.4,4-3.4c0.1,0.1,0.4,0.1,0.7,0.2c4.1,3.6,6.2,6.7,6.2,9.1
		c0-0.1-9.7,27.6-29.3,82.8c-4.8,13.6-11.7,34-20.8,61.3c11-17.6,28-43.6,51-78.3c8.4-12.3,21.2-30.7,38.3-55.1
		c2.8-4.1,7.5-10.1,13.7-17.7c4.5-4.3,7.7-6.4,10.1-6.4c0.7,0,1.5,0.4,2.5,0.9C776.7,87.8,777.3,88.5,777.3,89.1z"/>
	<path id="XMLID_45_" class="st0" d="M769.9,237.6c-4.5,3.4-10.6,6.9-18.4,10.4c-8.7,4.1-15.5,6.1-20.1,6.1c-1.4,0-2.5-0.2-3.4-0.6
		c-0.9-0.4-1.6-1.4-2.5-3.2c-0.4-0.4-0.8-0.7-1.3-1.2c-0.7-0.6-1.5-2-2.2-4.3c-0.8-2.3-1.1-4-0.9-4.8c0.1-1.8,1.1-5.4,3-10.9
		c3.2-6.7,6.7-12.3,10.7-16.7c3.9-4.5,7.9-8.1,11.8-10.8c4.8-3.3,9.3-5,13.4-5.4c0.4,0,0.8,0,1.1,0c0.1,0,0.1,0,0.2,0
		c0.7-0.4,1.5,0,2.5,0.9c2.6,2.9,4,6,4.3,9.4c0.4,3.9-0.4,8.2-2.1,13c-0.1,0.5-0.4,0.7-0.5,0.9c-0.7,1.3-2,3.2-3.9,5.4
		s-6.7,3.4-14.2,3.4c-4.2,0-7.7-0.6-10.7-1.8c-4.1,7.4-6,12.7-5.6,15.9c1.2,0.9,2.2,1.3,3.4,1.3c3.5,0,9.6-1.8,18.3-5.2
		c7-2.7,11.8-4.9,14.3-6.4c0.9-0.7,2-0.9,2.9-0.9c1.5,0,2.2,0.6,2.2,1.8C772.4,235.2,771.6,236.4,769.9,237.6z M761.5,203.9
		c-0.1-0.2-0.2-0.4-0.6-0.5c-1.8,0.1-3.6,1.1-5.6,2.8c-4.8,4-9.3,8.7-13.4,14c2.2,0.5,5.3,0.6,8.9,0.2c2.8-0.2,4.2-0.4,4.3-0.4
		c1.5-0.4,2.8-1.2,3.8-2.5C761.8,210.6,762.7,206,761.5,203.9z"/>
	<path id="XMLID_48_" class="st0" d="M829.5,230.3c-9,10.9-14.8,17.4-17.4,19.6c-3.9,3.4-8.4,5.2-13.5,5.2c-1.2,0-2.6-1.3-4-4
		c-1.8-3-2.6-6.4-2.6-10.1c0-2.9,2.8-10.2,8.4-21.8c-1.3,1.2-2.6,2.2-3.6,3.2c-1.5,1.2-8.6,7.6-21.2,19.2
		c-8,7.2-12.4,10.8-13.5,10.8c-0.4,0-0.6-0.2-0.6-0.8h-0.1c-0.7,0-1.3-1.1-2-3.3c-0.7-2.1-0.9-3.9-0.7-4.9
		c0.7-3.4,4.5-11.1,11.3-23.3c3.5-6.2,6.2-12.2,8.2-17.9c0.9-2.9,2-4.3,3.2-4.3c1.8,0.1,3.5,1.1,5.2,3c1.6,2,2.5,3.5,2.5,4.7
		c0,0.1-1.5,3.3-4.6,9.3c-1.2,2.5-5,9-11.5,19.6c5.3-3.9,13.8-11.4,25.7-22.5c2.1-2,6-5.9,11.5-11.6c3-3.2,5-4.8,6-4.8
		c1.5,0,3,1.2,4.7,3.4c1.5,0.9,2.2,3,2,6.3c0,0.7-1.6,2.8-4.9,6.4c-1.9,2.1-4.9,6.8-9.3,14.1c-3.5,5.9-5.6,10.7-6.3,14.2
		c-0.7,2.8-0.6,4.7,0.4,5.5c0.4,0.4,0.7,0.5,1.2,0.5c4.1,0,11.5-6.8,22.2-20.3c1.1-1.3,2.1-2,3-2c1.4,0,2.1,0.9,2.1,2.7
		C831.1,227.6,830.5,228.9,829.5,230.3z"/>
	<path id="XMLID_50_" class="st0" d="M879,201.1c-0.1,1.5-2.6,6.2-7.2,14.2c-4.6,7.9-8.4,14-11.7,18.2c-4.9,6.6-10.2,11.8-16.1,15.6
		c-4.1,2.8-7.2,4.1-8.8,4.1c-1.8,0-3-0.2-3.9-0.7c-2.2-0.9-4.7-2.3-7.3-4.3c-0.8-0.7-1.8-2.1-2.7-4.6c-1.1-2.3-1.5-4-1.4-4.8
		c0.4-3.4,1.6-7.5,4-12.7c3-6.8,7-12.9,11.8-18.4c2.7-3.3,6.1-6.9,10.3-11.1c0.2-0.1,0.6-0.1,0.9-0.1c1.4,0,3,0.6,4.8,1.6
		c1.9,1.1,2.7,2.2,2.7,3.4c0,0.5-0.2,0.9-0.7,1.5c-4.5,3.6-9.3,10-14.4,18.8c-4.8,8-7.5,14.5-8.2,19.5c-0.1,1.5,0.4,2.8,1.5,3.8
		c0.4,0.2,1.9,0,4.3-0.6c3.5-1.8,8.8-7,16.1-16.1c7.2-9,13.6-19,19.2-30c0.4-0.8,1.2-1.2,2.2-1.2C877.7,197.1,879.2,198.4,879,201.1
		z"/>
</g>
<rect x="18" y="168" class="st0" width="262" height="8"/>
<rect x="18" y="205" class="st0" width="262" height="8"/>
<rect x="921" y="168" class="st0" width="262" height="8"/>
<rect x="921" y="205" class="st0" width="262" height="8"/>
</svg>
