<?xml version="1.0" encoding="utf-8"?>
<!-- Generator: Adobe Illustrator 19.0.0, SVG Export Plug-In . SVG Version: 6.00 Build 0)  -->
<svg version="1.1" id="Layer_1" xmlns="http://www.w3.org/2000/svg" xmlns:xlink="http://www.w3.org/1999/xlink" x="0px" y="0px"
	 viewBox="0 0 1200 298" style="enable-background:new 0 0 1200 298;" xml:space="preserve">
<style type="text/css">
	.st0{fill:#FFFFFF;}
</style>
<g id="X3a61B_1_">
	<g>
		<path class="st0" d="M607.8,8.6c2.9,0.3,5.9,0.6,8.8,0.9c21.6,2.4,41.4,9.6,59.7,21.3c13.4,8.7,25,19.4,34.7,32.1
			c0.6,0.7,1.1,1,2.1,1c15.9-0.6,31.8-1.1,47.7-1.7c12.9-0.5,25.9-0.9,38.8-1.4c19-0.7,38.1-1.4,57.1-2.1
			c15.6-0.6,31.3-1.1,46.9-1.7c3.3-0.1,6.6,0,10,0c-3.9,3.7-8,7.4-12.3,11.5c48.7-2,96.9-4,145.2-6c48.3-2,96.6-4,144.9-5.7
			C1069.1,74.2,947,91.4,824.5,108.7c1.9-3.7,3.6-7.1,5.5-10.8c-31.4,6.3-62.6,12.5-93.7,18.6c1,6.6,2,13.2,3,19.8
			c42-6.9,84.1-13.8,126.5-20.8c-2.9,3.7-5.6,7.2-8.5,10.9c72.9-12.4,145.4-24.7,218-37c0,0.1,0,0.2,0.1,0.3
			c-90.6,25.5-181.2,51.1-272.1,76.7c1.1-3.2,2-6.1,3.1-9.3c-0.7,0.2-1.2,0.3-1.7,0.5c-22.6,7.9-45.1,15.7-67.7,23.6
			c-1.2,0.4-1.8,1-2.1,2.3c-13.3,49.6-52.7,87.6-102.7,99.2c-7.5,1.7-15.1,2.9-22.9,3.3c-0.5,0-1,0.2-1.5,0.3c-4.6,0-9.1,0-13.7,0
			c-2.9-0.3-5.9-0.6-8.8-0.9c-21.4-2.4-41.2-9.3-59.2-21.1c-29.6-19.3-49.2-46.1-58.8-80.1c-0.3-0.9-0.6-1.5-1.6-1.8
			c-23.7-8.2-47.4-16.5-71.1-24.7c-0.3-0.1-0.7-0.2-1.2-0.3c1,3.1,2,6,3.1,9.2c-90.9-25.6-181.5-51.2-272.2-76.7
			c0-0.1,0-0.2,0.1-0.2c72.6,12.3,145.1,24.6,218.1,37c-2.9-3.7-5.6-7.2-8.5-10.9c43.1,7.1,85.8,14.1,128.6,21.1
			c1-6.5,1.9-13.1,2.9-19.7c-31.7-6.3-63.6-12.6-95.8-19.1c1.9,3.6,3.6,7.1,5.5,10.8C252.8,91.4,130.6,74.2,8.4,57
			c0-0.1,0-0.2,0-0.3c96.5,4,193,7.9,290.1,11.9c-4.3-4.1-8.3-7.8-12.6-11.8c0.7,0,1.1-0.1,1.6-0.1c16,0.6,32.1,1.2,48.1,1.7
			c12.6,0.5,25.3,0.9,37.9,1.4c19.1,0.7,38.2,1.4,57.3,2.1c15.4,0.6,30.9,1.1,46.3,1.7c3.8,0.1,7.7,0.2,11.5,0.4
			c1.1,0.1,1.8-0.3,2.4-1.2C512.9,35,541.2,17.5,576,10.9c5.5-1,11.1-1.4,16.6-2c0.5-0.1,1-0.2,1.5-0.3
			C598.7,8.6,603.2,8.6,607.8,8.6z M713.5,147.4c0-62.1-50.3-112.6-112.2-112.7C539,34.7,488.5,85,488.4,147.1
			c0,62.4,50.2,112.9,112.3,112.9C663.1,260.1,713.5,209.8,713.5,147.4z"/>
		<path class="st0" d="M700,147.5c-0.1,54.7-44.7,99.2-99.3,99c-54.6-0.1-99-44.8-98.8-99.3c0.1-54.7,44.7-99.1,99.4-99
			C655.8,48.4,700.1,93,700,147.5z M691.7,147.4c0-50-40.7-90.7-90.6-90.7c-50,0-90.8,40.7-90.8,90.8c0,50.1,40.7,90.8,90.8,90.7
			C651,238.1,691.7,197.4,691.7,147.4z"/>
		<path class="st0" d="M547.3,146.7c4.3,0,8.5,0,12.4,0c1-4.4,1.5-8.8,3-12.8c5.4-14.7,16-23.6,31.4-26.6c6.8-1.4,13.7-0.7,20.3,1.7
			c1.2,0.4,1.8,0.2,2.4-0.9c2.3-3.9,4.8-7.7,7.5-11.4c-0.9,4.1-1.7,8.2-2.6,12.3c-0.6,2.8-0.6,2.8,1.8,4.5c10,6.9,16,16.4,17.9,28.4
			c0.2,1.5,0.3,3.1,0.4,4.8c4.9,0,9.8,0,14.8,0c-1.3,19.7-9.7,35.3-26.6,45.3c-18.9,11.2-38.4,11-57.2-0.4
			C553.5,179.7,547,159.5,547.3,146.7z M613.9,112.5c-13-4.2-25-2.7-35.7,5.6c-9.2,7.1-13.9,16.7-14.4,28.5c5.4,0,10.5,0,15.6,0
			c2.9-11.3,13.1-18.2,23.4-17.7c0.4,0,1-0.3,1.2-0.7C607.3,123.1,610.5,117.9,613.9,112.5z M620.3,115.9c-0.1,0.2-0.2,0.3-0.3,0.5
			c-1.2,5.5-2.4,11.1-3.5,16.7c-0.1,0.5,0.2,1.3,0.6,1.7c2.8,2.6,4.9,5.7,6.3,9.3c1,2.6,1,2.6,3.8,2.6c3.6,0,7.1,0,10.6,0
			C638.5,136.3,631.6,122.1,620.3,115.9z M578.7,164.8c5.8,7.7,13,13.1,23.3,12.9c7.8-0.1,18.9-7,21.5-13.2
			C608.6,173.3,593.7,173.3,578.7,164.8z M599.3,158.2c0.1,0.1,0.2,0.1,0.3,0.2c2.4-1.4,4.8-2.9,7.3-4.2c1.1-0.6,1.6-1.4,1.9-2.6
			c1.7-7.8,3.5-15.5,5.2-23.3c0.7-3,1.3-6,2-9c-0.1,0-0.2-0.1-0.3-0.1C610.2,132.2,604.8,145.2,599.3,158.2z"/>
		<path class="st0" d="M682.3,145.4c1.2,0,2.1,0,3.1,0c1.5,2.9,0.6,5.9,0.4,8.8c-1.4,15.6-6.7,29.8-16,42.4
			c-13.8,18.5-32.2,29.8-55.1,33.3c-43.9,6.7-85.3-21.6-94.9-64.9c-1.2-5.3-1.4-10.8-2-16.3c-0.1-1.1,0.4-2.3,0.6-3.3
			c1.2,0,2.1,0,3.3,0c0.2,2.3,0.4,4.5,0.6,6.7c3.5,34.7,28.2,62.8,61.9,70.6c41.5,9.5,83.9-16,94.7-57.3c1.4-5.2,1.8-10.7,2.6-16
			C681.8,148.1,682,146.8,682.3,145.4z"/>
		<path class="st0" d="M526.5,146.7c2.1,0,3.8,0,5.5,0c1.1,21.7,9.9,39.6,26.9,53.1c12.9,10.2,27.7,15,44.1,14.8
			c9-0.1,17.6-2,25.9-5.5c8.2-3.5,15.5-8.4,21.9-14.7c6.4-6.3,11.4-13.7,14.9-21.9c3.5-8.2,5.4-16.8,5.7-25.8c1.9,0,3.6,0,5.6,0
			c-1.7,27-13.3,48.4-36.6,62.2c-26.3,15.6-53.3,15.2-79.1-1.1C539.2,193.9,528.1,173,526.5,146.7z"/>
		<path class="st0" d="M537,146.7c1.8,0,3.5,0,5.3,0c1,19.2,8.9,34.8,24.3,46.3c11.1,8.3,23.7,12.1,37.5,11.5
			c15.6-0.6,29-6.6,40-17.7c10.9-11.1,16.5-24.6,17.2-40.1c1.9,0,3.6,0,5.3,0c-0.1,30.3-25.1,62.8-64.4,63.1
			C564.4,210.2,537.3,179,537,146.7z"/>
		<path class="st0" d="M664.8,107.5c1.1,1.9,2.1,3.6,3.2,5.5c-6.9,4-13.8,8-20.8,12c-1.1-1.9-2.1-3.6-3.1-5.5
			C651,115.5,657.8,111.5,664.8,107.5z"/>
		<path class="st0" d="M597.7,73c2.1,0,4.1,0,6.2,0c0,7.7,0,15.4,0,23.1c-2.1,0-4.1,0-6.2,0C597.7,88.4,597.7,80.7,597.7,73z"/>
		<path class="st0" d="M537.4,107.7c6.9,4,13.6,7.9,20.4,11.9c-1,1.9-2,3.6-3.1,5.5c-6.8-3.9-13.5-7.9-20.5-11.9
			C535.3,111.4,536.3,109.6,537.4,107.7z"/>
		<path class="st0" d="M628.1,103.8c-0.9-0.5-1.6-1-2.5-1.5c2-3.4,3.9-6.8,5.9-10.3c0.8,0.5,1.6,0.9,2.5,1.4
			C632,97,630.1,100.3,628.1,103.8z"/>
		<path class="st0" d="M576.1,102.5c-0.8,0.5-1.5,0.9-2.3,1.4c-2-3.5-4-6.9-6-10.4c0.8-0.5,1.5-0.9,2.3-1.4
			C572.1,95.6,574.1,99,576.1,102.5z"/>
		<path class="st0" d="M599.2,67.6c0-1.2,0-2.2,0-3.2c1.8,0,3.5,0,5.2,0c0.1,0.2,0.2,0.2,0.2,0.3c0.1,2.9,0.1,2.9-2.6,2.9
			C601.1,67.6,600.2,67.6,599.2,67.6z"/>
		<path class="st0" d="M583.7,69.6c-1.9,0.5-3.5,0.9-5.1,1.3c-0.3-1-0.6-1.9-1-3c1.7-0.5,3.4-0.9,5.3-1.5
			C583.1,67.5,583.4,68.5,583.7,69.6z"/>
		<path class="st0" d="M657,89c0.6-0.6,1.3-1.3,2-2.1c1.3,1.3,2.5,2.6,3.8,4c-0.6,0.6-1.3,1.2-2.1,1.9C659.5,91.6,658.3,90.4,657,89
			z"/>
		<path class="st0" d="M531,110.1c-1-0.6-1.9-1-2.8-1.5c0.9-1.6,1.8-3.1,2.7-4.7c1,0.6,1.8,1.1,2.8,1.7
			C532.8,107.1,531.9,108.5,531,110.1z"/>
		<path class="st0" d="M523.6,129.8c-1.1-0.3-2.1-0.5-3.1-0.8c0.5-1.8,0.9-3.4,1.4-5.3c1.1,0.3,2,0.6,3.1,0.9
			C524.5,126.4,524.1,128,523.6,129.8z"/>
		<path class="st0" d="M635.1,74.6c-1.7-0.7-3.3-1.4-4.9-2c0.4-1,0.7-2,1.1-3c1.7,0.7,3.3,1.4,5.1,2.1
			C636,72.7,635.6,73.6,635.1,74.6z"/>
		<path class="st0" d="M594,67.9c-1.8,0.3-3.4,0.5-5.2,0.7c-0.2-1-0.4-2-0.6-3.2c1.9-0.2,3.6-0.5,5.5-0.7
			C593.8,65.8,593.9,66.7,594,67.9z"/>
		<path class="st0" d="M615.5,65.4c-0.2,1.2-0.4,2.1-0.6,3.2c-1.8-0.2-3.5-0.5-5.3-0.7c0.1-1.1,0.2-2,0.4-3.2
			C611.9,64.9,613.6,65.1,615.5,65.4z"/>
		<path class="st0" d="M519.4,134.4c1.2,0.2,2.2,0.4,3.2,0.5c-0.2,1.7-0.4,3.4-0.7,5.2c-1-0.1-2-0.1-3.2-0.2
			C519,138,519.2,136.3,519.4,134.4z"/>
		<path class="st0" d="M682,140c-0.2-1.7-0.5-3.4-0.7-5.2c1-0.2,2-0.4,3.2-0.6c0.3,1.9,0.5,3.6,0.7,5.5
			C684.1,139.8,683.1,139.9,682,140z"/>
		<path class="st0" d="M683.4,128.9c-1.1,0.3-2,0.5-3.1,0.8c-0.5-1.7-0.9-3.4-1.4-5.2c1-0.3,2-0.6,3.1-0.9
			C682.4,125.3,682.9,127,683.4,128.9z"/>
		<path class="st0" d="M525.8,113.4c1.1,0.5,1.9,0.9,2.9,1.3c-0.7,1.6-1.3,3.2-2,4.9c-1-0.4-1.9-0.7-3-1.1
			C524.3,116.8,525,115.2,525.8,113.4z"/>
		<path class="st0" d="M670.2,105.4c0.9-0.6,1.8-1.1,2.7-1.7c0.9,1.6,1.8,3.2,2.8,4.8c-1,0.5-1.8,1-2.8,1.5
			C672,108.5,671.1,107,670.2,105.4z"/>
		<path class="st0" d="M539.8,96.9c-1.1,1.5-2.1,2.8-3.2,4.2c-0.9-0.6-1.7-1.2-2.6-1.9c1.1-1.5,2.2-2.9,3.3-4.4
			C538.2,95.6,538.9,96.2,539.8,96.9z"/>
		<path class="st0" d="M648.7,82.5c0.6-0.9,1.2-1.7,1.9-2.6c1.5,1.1,2.9,2.2,4.4,3.3c-0.7,0.9-1.3,1.6-2,2.5
			C651.5,84.7,650.2,83.6,648.7,82.5z"/>
		<path class="st0" d="M568.7,74.7c-0.5-1-0.9-1.8-1.4-2.9c1.7-0.7,3.3-1.4,5.1-2.2c0.4,1.1,0.7,1.9,1.2,3
			C572,73.3,570.4,74,568.7,74.7z"/>
		<path class="st0" d="M646.1,76.9c-0.6,1-1.1,1.8-1.7,2.7c-1.6-0.9-3-1.7-4.6-2.7c0.5-1,1-1.8,1.5-2.9
			C642.9,75,644.5,75.9,646.1,76.9z"/>
		<path class="st0" d="M626.2,67.8c-0.3,1.1-0.6,2-0.9,3.1c-1.7-0.4-3.3-0.9-5.1-1.3c0.3-1.1,0.5-2.1,0.7-3.2
			C622.7,66.9,624.4,67.3,626.2,67.8z"/>
		<path class="st0" d="M562.5,74.2c0.5,1,1,1.8,1.5,2.8c-1.5,0.9-3,1.8-4.6,2.7c-0.6-0.9-1.1-1.7-1.8-2.7
			C559.3,76,560.8,75.1,562.5,74.2z"/>
		<path class="st0" d="M669.9,99.2c-0.9,0.7-1.7,1.2-2.6,1.9c-1.1-1.4-2.1-2.7-3.3-4.2c0.8-0.7,1.6-1.3,2.5-2.1
			C667.7,96.3,668.8,97.7,669.9,99.2z"/>
		<path class="st0" d="M675.2,114.7c1-0.5,1.9-0.9,2.9-1.3c0.7,1.7,1.4,3.3,2.1,5.1c-1.1,0.4-2,0.8-3,1.1
			C676.5,117.9,675.9,116.4,675.2,114.7z"/>
		<path class="st0" d="M543,92.8c-0.6-0.6-1.3-1.2-2.1-2c1.3-1.3,2.6-2.6,3.9-3.9c0.7,0.8,1.4,1.5,2.1,2.3
			C545.6,90.4,544.4,91.5,543,92.8z"/>
		<path class="st0" d="M553.2,79.9c0.7,1,1.3,1.7,2,2.7c-0.3,0.1-0.5,0.2-0.6,0.3c-1.2,0.9-2.4,1.8-3.7,2.8c-0.7-0.8-1.3-1.6-2-2.5
			C550.3,82.2,551.7,81.1,553.2,79.9z"/>
	</g>
</g>
</svg>
