<?xml version="1.0" encoding="utf-8"?>
<!-- Generator: Adobe Illustrator 19.0.0, SVG Export Plug-In . SVG Version: 6.00 Build 0)  -->
<svg version="1.1" id="Layer_1" xmlns="http://www.w3.org/2000/svg" xmlns:xlink="http://www.w3.org/1999/xlink" x="0px" y="0px"
	 viewBox="-564 565.6 70.4 70.4" style="enable-background:new -564 565.6 70.4 70.4;" xml:space="preserve">
<path id="XMLID_58_" d="M-528.8,567.8c-18.2,0-33,14.8-33,33s14.8,33,33,33c18.2,0,33-14.8,33-33S-510.6,567.8-528.8,567.8z
	 M-508.2,602.3l-29.6,18.1c-0.3,0.2-0.6,0.3-1,0.3c-0.3,0-0.6-0.1-0.9-0.2c-0.6-0.3-0.9-0.9-0.9-1.6v-36.3c0-0.7,0.4-1.3,0.9-1.6
	c0.6-0.3,1.3-0.3,1.9,0l29.5,18.1c0.5,0.3,0.9,0.9,0.9,1.6C-507.3,601.4-507.7,602-508.2,602.3z"/>
</svg>
