<?xml version="1.0" encoding="utf-8"?>
<!-- Generator: Adobe Illustrator 19.0.0, SVG Export Plug-In . SVG Version: 6.00 Build 0)  -->
<svg version="1.1" id="Layer_1" xmlns="http://www.w3.org/2000/svg" xmlns:xlink="http://www.w3.org/1999/xlink" x="0px" y="0px"
	 viewBox="210.1 400 780.9 403" style="enable-background:new 210.1 400 780.9 403;" xml:space="preserve">
<style type="text/css">
	.st0{fill:#FFFFFF;}
</style>
<g>
	<path id="XMLID_82_" class="st0" d="M609.9,415.2l355,355c4.7,4.7,4.7,12.3,0,17l-0.7,0.7c-4.7,4.7-12.3,4.7-17,0l-355-355
		c-4.7-4.7-4.7-12.3,0-17l0.7-0.7C597.6,410.5,605.2,410.5,609.9,415.2z"/>
	<path id="XMLID_1_" class="st0" d="M608.1,415.2l0.7,0.7c4.7,4.7,4.7,12.3,0,17l-355,355c-4.7,4.7-12.3,4.7-17,0l-0.7-0.7
		c-4.7-4.7-4.7-12.3,0-17l355-355C595.8,410.5,603.4,410.5,608.1,415.2z"/>
</g>
</svg>
